<svg width="360" height="212" viewBox="0 0 360 212" fill="none" xmlns="http://www.w3.org/2000/svg">
<path d="M390.264 257.68C391.109 257.636 398.98 257.323 402.106 262.46C402.585 263.226 403.16 265.22 403.16 269.382C403.16 282.243 392.737 292.666 379.859 292.666C375.261 292.666 373.102 291.917 372.431 291.447C371.238 290.629 370.411 289.566 369.836 288.486C369.401 286.728 368.922 285.117 368.435 283.654C368.487 284.316 368.713 286.44 369.836 288.486C370.873 292.718 371.604 297.786 371.395 303.472C370.054 339.251 332.464 366.2 305.55 369.317C300.865 369.866 292.933 370.676 285.157 366.113C276.458 360.993 273.15 352.181 272.07 348.776C271.443 350.91 267.986 361.629 257.206 366.853C250.981 369.875 245.234 369.605 242.299 369.387C242.047 369.361 241.812 369.343 241.603 369.317C229.935 368.386 222.063 360.427 219.381 357.432C219.059 358.947 217.265 366.818 212.572 373.863C209.716 378.12 205.807 382.074 200.495 384.12C194.931 386.279 187.904 386.323 186.015 386.332C181.182 386.375 176.149 386.41 171.83 384.207C171.543 384.059 171.264 383.911 171.003 383.745C161.286 378.042 160.38 363.065 160.293 361.193C156.07 370.876 150.088 375.082 147.293 376.727C145.325 377.885 143.305 378.765 141.241 379.383C123.974 384.59 104.757 372.243 102.18 370.589C94.7524 365.799 89.9546 360.235 87.2727 356.683C86.0885 360.018 80.9773 373.27 67.803 378.617C61.6207 381.125 56.2134 380.872 53.8276 380.733C33.0779 379.531 6.8512 359.434 6.81637 333.73C6.81637 330.273 7.27787 321.157 14.0609 310.612C10.8566 314.591 5.64958 319.433 -1.45565 320.504C-18.2261 323.046 -34.3174 302.854 -35.2578 286.71C-35.5887 281.05 -33.9778 277.115 -33.6121 276.287C-28.5444 264.419 -14.2294 261.467 -12.1048 261.076C-13.9943 260.658 -36.2504 255.39 -41.8232 239.769C-42.9812 236.529 -44 231.218 -44 225.558C-44 225.558 -44 217.965 -41.8406 211.435C-36.3636 194.804 -14.7954 186.514 -12.8536 185.791C-15.8751 183.632 -17.4511 180.053 -16.8678 176.605C-16.1625 172.356 -12.2877 169.021 -7.57696 168.856C-10.285 167.88 -17.9997 164.72 -22.1357 156.796C-22.7801 155.568 -24.5128 150.57 -24.5128 141.924C-24.5128 115.732 -3.28421 94.5031 22.9076 94.5031C24.3008 94.5031 25.5024 94.5815 25.5024 94.5815C27.0524 94.9472 28.3411 95.8179 29.3947 96.9325C30.0477 98.8046 31.1623 100.999 33.0692 103.359C32.4422 101.591 31.2667 98.9003 29.3947 96.9325C28.5065 94.4247 28.463 92.4743 28.4978 91.4729C28.9506 76.5049 52.8872 70.8451 53.4009 70.7929C53.5316 70.7841 53.6796 70.7841 53.8189 70.7841C54.0801 70.7841 54.3501 70.7841 54.6113 70.8103C54.6461 70.6013 54.6809 70.2878 54.7332 69.9047C58.0942 46.1248 75.5003 20.0723 102.258 8.08218C110.852 4.23351 133.962 -6.12829 158.726 5.00847C184.465 16.5719 192.275 42.4764 193.425 46.5253C195.392 43.9567 199.737 39.037 207.017 36.0242C207.679 35.7369 213.661 33.5252 220.661 33.5252C241.942 33.5252 259.192 50.7745 259.192 72.0554C259.192 75.9999 258.591 79.805 257.485 83.3925C261.456 79.3435 268.012 79.4654 271.704 83.4186C275.222 87.1541 275.161 93.2666 271.382 97.0718C281.3 92.1956 292.637 89.418 304.67 89.418C343.627 89.418 375.218 118.422 375.218 154.21C375.218 159.591 374.26 164.946 374.26 164.946C372.17 175.508 367.198 183.101 363.933 187.307C390.325 193.55 408.889 208.631 409.943 223.651C410.152 226.551 409.856 231.627 407.923 237.104C403.499 249.53 393.564 255.782 390.264 257.68Z" fill="#F55399"/>
<path d="M343.514 78.7426C335.851 90.2886 319.769 101.434 306.238 104.525L304.009 101.408C310.269 91.4902 319.516 84.3415 329.591 78.7513C332.978 76.9924 336.478 75.3903 340.44 74.4412L343.514 78.7426Z" fill="#1E1E1E"/>
<path d="M355.626 107.703C345.56 117.273 327.458 124.535 313.543 124.552L312.063 121.026C320.387 112.736 330.958 107.843 342.042 104.621C345.734 103.654 349.505 102.88 353.58 102.827C353.588 102.827 355.626 107.703 355.626 107.703Z" fill="#1E1E1E"/>
<path d="M357.994 136.995C345.351 142.803 325.925 143.83 312.725 139.363L312.463 135.541C323.017 130.377 334.606 129.167 346.135 129.698C349.94 129.977 353.754 130.456 357.629 131.727L357.994 136.995Z" fill="#1E1E1E"/>
<path d="M-9.52745 289.679C-13.8289 288.626 -15.5181 284.551 -17.1203 280.928C-19.4365 275.652 -21.0473 269.853 -21.535 264.036C-24.1559 239.699 1.25231 225.323 21.6102 220.22L20.5914 231.566C19.0154 230.826 17.8486 230.138 16.4467 229.25C-3.68479 216.468 1.29584 193.288 22.2023 184.955C26.4341 183.684 30.5875 181.56 34.8193 185.112C32.7905 187.777 30.8662 188.465 28.1582 189.509C19.4421 192.862 9.77685 204.042 16.0462 213.272C18.1795 216.337 21.9498 218.984 25.4328 220.56L41.0625 227.125C34.5146 229.111 21.14 232.507 15.01 235.136C2.34944 240.369 -12.2616 248.868 -12.575 263.862C-12.845 268.877 -12.3399 273.884 -11.0338 278.804C-10.0847 282.435 -8.48256 285.744 -9.52745 289.679Z" fill="#CC3366"/>
<path d="M36.5521 81.1198C38.1195 82.7654 39.0947 85.012 39.6258 86.4922C38.0324 84.5244 37.1007 82.6784 36.5521 81.1198Z" fill="#F55399"/>
<path d="M259.244 202.736C296.162 202.736 326.091 172.66 326.091 135.558C326.091 98.4573 296.162 68.3809 259.244 68.3809C222.326 68.3809 192.397 98.4573 192.397 135.558C192.397 172.66 222.326 202.736 259.244 202.736Z" fill="white"/>
<path d="M257.015 155.168C276.626 155.168 292.524 139.192 292.524 119.485C292.524 99.7775 276.626 83.8018 257.015 83.8018C237.404 83.8018 221.506 99.7775 221.506 119.485C221.506 139.192 237.404 155.168 257.015 155.168Z" fill="#1E1E1E"/>
<path d="M24.5882 89.7053C38.1978 92.3088 54.6896 102.845 62.7788 114.13L60.7674 117.386C49.1779 115.444 39.0512 109.689 29.9868 102.54C27.0524 100.102 24.2312 97.4897 21.8192 94.1983L24.5882 89.7053Z" fill="#1E1E1E"/>
<path d="M13.4077 118.91C27.2873 118.431 45.6512 125.014 56.0653 134.226L54.8288 137.848C43.1 138.528 31.9458 135.167 21.5143 130.221C18.1097 128.488 14.7748 126.572 11.6924 123.908C11.7011 123.917 13.4077 118.91 13.4077 118.91Z" fill="#1E1E1E"/>
<path d="M11.3354 148.019C24.3443 143.09 43.7966 143.387 56.6575 148.75V152.582C45.7732 157.014 34.1314 157.432 22.6638 156.117C18.8848 155.577 15.1058 154.837 11.3354 153.313C11.3354 153.304 11.3354 148.019 11.3354 148.019Z" fill="#1E1E1E"/>
<path d="M110.783 205.4C147.701 205.4 177.629 175.324 177.629 138.223C177.629 101.122 147.701 71.0453 110.783 71.0453C73.8643 71.0453 43.936 101.122 43.936 138.223C43.936 175.324 73.8643 205.4 110.783 205.4Z" fill="white"/>
<path d="M113.003 155.168C132.614 155.168 148.512 139.192 148.512 119.485C148.512 99.7775 132.614 83.8018 113.003 83.8018C93.3922 83.8018 77.4944 99.7775 77.4944 119.485C77.4944 139.192 93.3922 155.168 113.003 155.168Z" fill="#1E1E1E"/>
<path d="M211.989 69.3821C209.107 66.0472 206.233 61.4671 208.218 57.6358C212.633 50.8615 217.744 44.8534 224.092 39.5854C237.754 28.0655 255.378 23.5377 272.975 27.7346C283.642 30.103 293.429 35.0924 301.971 41.5707C304.026 43.1903 306.124 44.7576 307.953 46.6297C309.895 48.9807 309.634 53.1515 308.571 56.2339C308.397 56.8435 307.953 57.8883 307.674 58.5066L307.056 59.1248C305.28 60.0565 303.399 60.9533 301.527 61.5803C299.846 62.1898 297.391 62.5642 296.189 62.0244C294.361 61.1188 292.637 60.0043 290.782 59.1509C281.291 54.4664 270.981 51.7061 260.445 52.0718C248.821 52.4636 238.337 58.6894 229.787 66.5522C228.315 67.8932 226.887 69.3212 225.529 70.7927C224.806 71.498 223.657 71.8811 221.863 71.8724C219.242 71.7854 216.996 71.3413 213.913 70.4967L211.989 69.3821Z" fill="#1E1E1E"/>
<path d="M46.9139 70.4967C44.0318 67.1618 41.1583 62.5817 43.1436 58.7504C47.5583 51.9761 52.6695 45.968 59.0172 40.7C72.6791 29.1801 90.3029 24.6523 107.901 28.8492C118.567 31.2177 128.354 36.207 136.896 42.6853C138.951 44.3049 141.05 45.8722 142.878 47.7443C144.82 50.0953 144.559 54.2662 143.496 57.3486C143.322 57.9581 142.878 59.003 142.6 59.6212L141.981 60.2394C140.205 61.1711 138.324 62.068 136.452 62.6949C134.772 63.3044 132.316 63.6788 131.114 63.139C129.286 62.2334 127.562 61.1189 125.707 60.2656C116.216 55.581 105.907 52.8207 95.3706 53.1864C83.7462 53.5783 73.2625 59.8041 64.7119 67.6668C63.2403 69.0078 61.8123 70.4358 60.4539 71.9073C59.7312 72.6126 58.5818 72.9958 56.7881 72.987C54.1672 72.9 51.9207 72.4559 48.8383 71.6113C48.8383 71.6026 46.9139 70.4967 46.9139 70.4967Z" fill="#1E1E1E"/>
</svg>
