<svg version="1.1" id="Layer_1" xmlns="http://www.w3.org/2000/svg" xmlns:xlink="http://www.w3.org/1999/xlink" x="0px" y="0px"
	 width="100%" viewBox="0 0 141 141" enable-background="new 0 0 141 141" xml:space="preserve">
<path fill="#FCFDFD" opacity="1.000000" stroke="none" 
	d="
M142.000000,45.000000 
	C142.000000,77.638138 142.000000,109.776276 142.000000,141.957214 
	C95.070251,141.957214 48.140453,141.957214 1.105329,141.957214 
	C1.105329,95.112114 1.105329,48.223919 1.105329,1.167860 
	C47.999500,1.167860 94.999710,1.167860 142.000000,1.167860 
	C142.000000,15.525848 142.000000,30.012924 142.000000,45.000000 
M109.051537,42.960064 
	C120.174179,57.767311 120.015999,74.071854 114.820892,91.044937 
	C124.240524,82.234962 122.946365,53.736282 109.756577,39.354084 
	C106.189949,36.048923 102.623314,32.743767 99.056686,29.438608 
	C98.521042,29.960348 97.985397,30.482088 97.449753,31.003830 
	C101.249588,34.775421 105.049416,38.547012 109.051537,42.960064 
M101.210335,11.226725 
	C89.487076,5.572748 77.062248,4.144585 64.240028,5.059934 
	C41.363461,6.693040 16.782429,25.866766 9.692871,47.703114 
	C9.263571,49.025394 9.353798,50.516342 9.202287,51.928810 
	C9.722468,52.082096 10.242650,52.235382 10.762833,52.388668 
	C11.543158,50.931156 12.463389,49.530571 13.083039,48.007679 
	C24.200260,20.685284 52.027279,4.683990 81.279037,8.832273 
	C118.811050,14.154806 143.149261,51.134014 133.191544,87.707565 
	C123.552322,123.111259 86.030785,142.484985 50.649117,130.409988 
	C49.230526,129.925858 47.497807,130.362183 45.911446,130.369644 
	C47.162125,131.457779 48.237438,133.023209 49.691616,133.557465 
	C60.032784,137.356842 70.776779,138.406250 81.612076,136.760376 
	C110.738213,132.336090 133.492538,110.080818 137.855820,82.118568 
	C142.446930,52.696262 128.307831,24.989901 101.210335,11.226725 
M128.283356,87.770355 
	C129.184448,82.557472 130.205673,77.360214 130.887787,72.118828 
	C131.028290,71.039200 129.903671,69.794930 129.362183,68.626549 
	C128.786057,69.794838 127.784042,70.931900 127.695763,72.135956 
	C125.122528,107.231476 96.441032,130.350113 61.948902,125.047134 
	C38.891277,121.502151 19.993570,103.444328 16.012236,81.152039 
	C11.901875,58.137306 22.928459,34.861546 43.582874,23.446442 
	C59.202915,14.813688 75.471115,14.175063 92.186775,20.035587 
	C93.222984,20.398886 94.630295,19.703739 95.864944,19.501043 
	C95.026382,18.661692 94.323593,17.350058 93.326157,17.063299 
	C88.557747,15.692410 83.771645,14.032818 78.879868,13.495822 
	C33.199806,8.481292 4.018863,48.877697 13.661763,85.551208 
	C19.937029,109.417053 42.407555,128.000977 66.235275,129.028000 
	C95.617111,130.294418 118.895256,115.062691 128.283356,87.770355 
M46.980755,108.928398 
	C48.749741,110.307686 50.335629,112.339432 52.334282,112.900299 
	C54.805775,113.593872 57.620548,113.031151 60.285973,113.074593 
	C64.035706,113.135696 65.795464,111.167213 65.863342,107.582039 
	C65.935219,103.786018 65.879478,99.987587 65.879478,96.062759 
	C68.938622,96.211624 71.588448,96.633141 74.185181,96.416901 
	C86.189316,95.417244 95.595169,86.925362 95.977562,71.494003 
	C96.212791,62.001728 96.020737,52.498867 96.020683,43.000763 
	C96.020615,28.679436 96.021759,28.740900 81.633072,28.997217 
	C77.073380,29.078444 74.874710,31.061413 74.956352,35.657269 
	C75.031944,39.912399 74.972466,44.169933 74.972466,48.351921 
	C56.953209,49.724766 46.932739,60.574783 46.932983,78.030396 
	C46.933125,88.028404 46.934502,98.026405 46.980755,108.928398 
M50.988174,30.314262 
	C58.601391,28.319155 66.214607,26.324049 73.827827,24.328941 
	C61.954704,22.192583 51.453129,25.516752 41.955654,32.430862 
	C31.857738,39.782085 24.884325,49.166668 23.797993,62.297638 
	C29.243391,48.810860 36.383160,36.838024 50.988174,30.314262 
z"/>
<path fill="#51BFDA" opacity="1.000000" stroke="none" 
	d="
M101.538223,11.410735 
	C128.307831,24.989901 142.446930,52.696262 137.855820,82.118568 
	C133.492538,110.080818 110.738213,132.336090 81.612076,136.760376 
	C70.776779,138.406250 60.032784,137.356842 49.691616,133.557465 
	C48.237438,133.023209 47.162125,131.457779 45.911446,130.369644 
	C47.497807,130.362183 49.230526,129.925858 50.649117,130.409988 
	C86.030785,142.484985 123.552322,123.111259 133.191544,87.707565 
	C143.149261,51.134014 118.811050,14.154806 81.279037,8.832273 
	C52.027279,4.683990 24.200260,20.685284 13.083039,48.007679 
	C12.463389,49.530571 11.543158,50.931156 10.762833,52.388668 
	C10.242650,52.235382 9.722468,52.082096 9.202287,51.928810 
	C9.353798,50.516342 9.263571,49.025394 9.692871,47.703114 
	C16.782429,25.866766 41.363461,6.693040 64.240028,5.059934 
	C77.062248,4.144585 89.487076,5.572748 101.538223,11.410735 
z"/>
<path fill="#101010" opacity="1.000000" stroke="none" 
	d="
M128.188446,88.161133 
	C118.895256,115.062691 95.617111,130.294418 66.235275,129.028000 
	C42.407555,128.000977 19.937029,109.417053 13.661763,85.551208 
	C4.018863,48.877697 33.199806,8.481292 78.879868,13.495822 
	C83.771645,14.032818 88.557747,15.692410 93.326157,17.063299 
	C94.323593,17.350058 95.026382,18.661692 95.864944,19.501043 
	C94.630295,19.703739 93.222984,20.398886 92.186775,20.035587 
	C75.471115,14.175063 59.202915,14.813688 43.582874,23.446442 
	C22.928459,34.861546 11.901875,58.137306 16.012236,81.152039 
	C19.993570,103.444328 38.891277,121.502151 61.948902,125.047134 
	C96.441032,130.350113 125.122528,107.231476 127.695763,72.135956 
	C127.784042,70.931900 128.786057,69.794838 129.362183,68.626549 
	C129.903671,69.794930 131.028290,71.039200 130.887787,72.118828 
	C130.205673,77.360214 129.184448,82.557472 128.188446,88.161133 
z"/>
<path fill="#060606" opacity="1.000000" stroke="none" 
	d="
M46.958038,108.476410 
	C46.934502,98.026405 46.933125,88.028404 46.932983,78.030396 
	C46.932739,60.574783 56.953209,49.724766 74.972466,48.351921 
	C74.972466,44.169933 75.031944,39.912399 74.956352,35.657269 
	C74.874710,31.061413 77.073380,29.078444 81.633072,28.997217 
	C96.021759,28.740900 96.020615,28.679436 96.020683,43.000763 
	C96.020737,52.498867 96.212791,62.001728 95.977562,71.494003 
	C95.595169,86.925362 86.189316,95.417244 74.185181,96.416901 
	C71.588448,96.633141 68.938622,96.211624 65.879478,96.062759 
	C65.879478,99.987587 65.935219,103.786018 65.863342,107.582039 
	C65.795464,111.167213 64.035706,113.135696 60.285973,113.074593 
	C57.620548,113.031151 54.805775,113.593872 52.334282,112.900299 
	C50.335629,112.339432 48.749741,110.307686 46.958038,108.476410 
M51.021137,109.556580 
	C51.334789,109.677437 51.648445,109.798294 52.865761,110.017975 
	C55.591049,109.982742 58.316338,109.947517 61.574467,109.827690 
	C61.820831,109.570824 62.067196,109.313957 62.793701,108.375526 
	C62.793701,103.312485 62.793701,98.249443 62.793701,92.773514 
	C71.707375,93.869698 78.210724,91.489815 82.769173,84.721207 
	C87.100685,78.289597 86.917473,70.152893 82.255844,63.767052 
	C77.734459,57.573318 70.062767,54.609226 63.475647,56.510986 
	C55.982140,58.674435 50.718548,64.808235 50.053566,72.504539 
	C50.053566,72.504539 50.095951,72.960266 49.986500,73.897079 
	C50.020325,85.277702 50.054153,96.658318 50.154263,108.551392 
	C50.421318,108.726845 50.688370,108.902290 50.991493,109.007652 
	C50.991493,109.007652 50.922077,109.045006 51.021137,109.556580 
M84.674606,89.767738 
	C89.593399,85.628036 92.925728,80.523155 92.995659,73.965607 
	C93.127045,61.645451 92.951363,49.322021 93.033829,36.163593 
	C93.379265,33.257900 92.270805,31.780352 89.166069,31.989649 
	C87.191185,32.122780 85.177261,32.205704 83.220764,31.974001 
	C78.981125,31.471914 77.786789,33.695240 77.853844,37.398491 
	C77.922668,41.199673 78.003670,45.011166 77.779816,48.800449 
	C77.716011,49.880634 76.608963,50.899193 75.593132,51.486115 
	C74.866142,52.118755 74.139153,52.751400 73.412163,53.384048 
	C74.009514,53.896828 74.606873,54.409611 75.895813,54.983002 
	C79.647461,58.655045 83.399101,62.327087 87.164177,66.774231 
	C89.491653,71.628853 89.739624,76.495064 87.538223,81.506447 
	C86.295448,84.335564 85.366051,87.302338 84.178619,90.280807 
	C84.178619,90.280807 84.200317,90.243111 84.674606,89.767738 
M67.700256,53.447445 
	C68.871292,53.629456 70.042320,53.811470 71.775017,54.080776 
	C70.481461,51.137112 69.547989,49.521477 67.700256,53.447445 
M64.350815,53.665073 
	C64.468689,53.419731 64.586563,53.174385 64.704437,52.929043 
	C64.469086,52.857624 64.233727,52.786201 63.998379,52.714783 
	C63.972797,53.052574 63.947220,53.390369 64.350815,53.665073 
z"/>
<path fill="#55C0DA" opacity="1.000000" stroke="none" 
	d="
M50.653362,30.493305 
	C36.383160,36.838024 29.243391,48.810860 23.797993,62.297638 
	C24.884325,49.166668 31.857738,39.782085 41.955654,32.430862 
	C51.453129,25.516752 61.954704,22.192583 73.827827,24.328941 
	C66.214607,26.324049 58.601391,28.319155 50.653362,30.493305 
z"/>
<path fill="#51BFDA" opacity="1.000000" stroke="none" 
	d="
M110.011932,39.971107 
	C122.946365,53.736282 124.240524,82.234962 114.820892,91.044937 
	C120.015999,74.071854 120.174179,57.767311 109.075027,42.334534 
	C109.403000,41.129707 109.707466,40.550407 110.011932,39.971107 
z"/>
<path fill="#4FBED9" opacity="1.000000" stroke="none" 
	d="
M109.884254,39.662598 
	C109.707466,40.550407 109.403000,41.129707 108.973885,42.013802 
	C105.049416,38.547012 101.249588,34.775421 97.449753,31.003830 
	C97.985397,30.482088 98.521042,29.960348 99.056686,29.438608 
	C102.623314,32.743767 106.189949,36.048923 109.884254,39.662598 
z"/>
<path fill="#0A3C76" opacity="1.000000" stroke="none" 
	d="
M50.087978,108.038940 
	C50.054153,96.658318 50.020325,85.277702 50.190079,73.351776 
	C50.393658,72.806480 50.496429,72.374344 50.496429,72.374344 
	C50.496429,72.374344 50.137245,72.054565 50.137245,72.054565 
	C50.718548,64.808235 55.982140,58.674435 63.475647,56.510986 
	C70.062767,54.609226 77.734459,57.573318 82.255844,63.767052 
	C86.917473,70.152893 87.100685,78.289597 82.769173,84.721207 
	C78.210724,91.489815 71.707375,93.869698 62.793701,92.773514 
	C62.793701,98.249443 62.793701,103.312485 62.287498,108.772964 
	C61.534740,109.417694 61.288185,109.664993 61.041626,109.912292 
	C58.316338,109.947517 55.591049,109.982742 52.300625,109.761292 
	C51.516617,109.258965 51.245480,109.105759 50.922077,109.045006 
	C50.922077,109.045006 50.991493,109.007652 50.894341,108.819962 
	C50.639462,108.340454 50.403057,108.142677 50.087978,108.038940 
M82.745758,71.965355 
	C82.203972,70.761528 81.798653,69.470718 81.096458,68.369141 
	C78.258247,63.916664 72.738014,62.880917 68.565552,65.934509 
	C63.834671,69.396774 62.956696,75.142838 66.648697,79.270699 
	C69.093369,82.003983 72.016212,83.721535 75.883553,82.431801 
	C80.531982,80.881577 82.793938,77.594696 82.745758,71.965355 
z"/>
<path fill="#50BFD9" opacity="1.000000" stroke="none" 
	d="
M75.980316,51.946014 
	C76.608963,50.899193 77.716011,49.880634 77.779816,48.800449 
	C78.003670,45.011166 77.922668,41.199673 77.853844,37.398491 
	C77.786789,33.695240 78.981125,31.471914 83.220764,31.974001 
	C85.177261,32.205704 87.191185,32.122780 89.166069,31.989649 
	C92.270805,31.780352 93.379265,33.257900 92.574051,36.582775 
	C88.225807,36.912571 86.665886,39.089298 87.035995,42.653961 
	C87.694244,48.993805 88.425598,55.333820 89.424034,61.626534 
	C89.790962,63.939083 90.766640,65.999382 87.150749,65.999130 
	C83.399101,62.327087 79.647461,58.655045 75.441307,54.635902 
	C75.317970,53.507877 75.649147,52.726944 75.980316,51.946014 
z"/>
<path fill="#50BFD8" opacity="1.000000" stroke="none" 
	d="
M87.157463,66.386681 
	C90.766640,65.999382 89.790962,63.939083 89.424034,61.626534 
	C88.425598,55.333820 87.694244,48.993805 87.035995,42.653961 
	C86.665886,39.089298 88.225807,36.912571 92.508820,37.000954 
	C92.951363,49.322021 93.127045,61.645451 92.995659,73.965607 
	C92.925728,80.523155 89.593399,85.628036 84.452972,89.974518 
	C84.231339,90.181297 84.295502,90.207100 84.295502,90.207100 
	C85.366051,87.302338 86.295448,84.335564 87.538223,81.506447 
	C89.739624,76.495064 89.491653,71.628853 87.157463,66.386681 
z"/>
<path fill="#070A0C" opacity="1.000000" stroke="none" 
	d="
M67.715500,53.126343 
	C69.547989,49.521477 70.481461,51.137112 71.775017,54.080776 
	C70.042320,53.811470 68.871292,53.629456 67.715500,53.126343 
z"/>
<path fill="#070A0C" opacity="1.000000" stroke="none" 
	d="
M75.786728,51.716064 
	C75.649147,52.726944 75.317970,53.507877 75.095520,54.605598 
	C74.606873,54.409611 74.009514,53.896828 73.412163,53.384048 
	C74.139153,52.751400 74.866142,52.118755 75.786728,51.716064 
z"/>
<path fill="#070A0C" opacity="1.000000" stroke="none" 
	d="
M64.136230,53.696617 
	C63.947220,53.390369 63.972797,53.052574 63.998375,52.714783 
	C64.233727,52.786201 64.469086,52.857624 64.704437,52.929043 
	C64.586563,53.174385 64.468689,53.419731 64.136230,53.696617 
z"/>
<path fill="#0C4489" opacity="1.000000" stroke="none" 
	d="
M50.095406,72.279556 
	C50.137245,72.054565 50.496429,72.374344 50.496429,72.374344 
	C50.496429,72.374344 50.393658,72.806480 50.244804,72.883377 
	C50.095951,72.960266 50.053566,72.504539 50.095406,72.279556 
z"/>
<path fill="#50BFD8" opacity="1.000000" stroke="none" 
	d="
M84.215828,90.212204 
	C84.200317,90.243111 84.178619,90.280807 84.237061,90.243958 
	C84.295502,90.207100 84.231339,90.181297 84.215828,90.212204 
z"/>
<path fill="#0C4489" opacity="1.000000" stroke="none" 
	d="
M50.121120,108.295166 
	C50.403057,108.142677 50.639462,108.340454 50.876308,108.855011 
	C50.688370,108.902290 50.421318,108.726845 50.121120,108.295166 
z"/>
<path fill="#0C4489" opacity="1.000000" stroke="none" 
	d="
M50.971607,109.300797 
	C51.245480,109.105759 51.516617,109.258965 51.848793,109.711884 
	C51.648445,109.798294 51.334789,109.677437 50.971607,109.300797 
z"/>
<path fill="#0C4489" opacity="1.000000" stroke="none" 
	d="
M61.308048,109.869995 
	C61.288185,109.664993 61.534740,109.417694 62.047432,109.113747 
	C62.067196,109.313957 61.820831,109.570824 61.308048,109.869995 
z"/>
<path fill="#090B0E" opacity="1.000000" stroke="none" 
	d="
M82.798111,72.349869 
	C82.793938,77.594696 80.531982,80.881577 75.883553,82.431801 
	C72.016212,83.721535 69.093369,82.003983 66.648697,79.270699 
	C62.956696,75.142838 63.834671,69.396774 68.565552,65.934509 
	C72.738014,62.880917 78.258247,63.916664 81.096458,68.369141 
	C81.798653,69.470718 82.203972,70.761528 82.798111,72.349869 
M74.988884,79.566353 
	C76.613190,77.356064 79.109993,75.298523 79.533730,72.878059 
	C79.786865,71.432114 77.085831,68.598419 75.165878,67.906975 
	C73.509720,67.310524 70.521065,68.293732 69.160362,69.633591 
	C67.960732,70.814835 67.216728,74.122734 68.019325,75.300644 
	C69.372597,77.286751 72.108650,78.330666 74.988884,79.566353 
z"/>
<path fill="#F4F4F4" opacity="1.000000" stroke="none" 
	d="
M74.626015,79.668594 
	C72.108650,78.330666 69.372597,77.286751 68.019325,75.300644 
	C67.216728,74.122734 67.960732,70.814835 69.160362,69.633591 
	C70.521065,68.293732 73.509720,67.310524 75.165878,67.906975 
	C77.085831,68.598419 79.786865,71.432114 79.533730,72.878059 
	C79.109993,75.298523 76.613190,77.356064 74.626015,79.668594 
z"/>
</svg>