<?xml version="1.0" encoding="UTF-8" standalone="no"?>
<svg
   xmlns:dc="http://purl.org/dc/elements/1.1/"
   xmlns:cc="http://creativecommons.org/ns#"
   xmlns:rdf="http://www.w3.org/1999/02/22-rdf-syntax-ns#"
   xmlns:svg="http://www.w3.org/2000/svg"
   xmlns="http://www.w3.org/2000/svg"
   viewBox="0 0 1122.52 793.70135"
   height="793.70135"
   width="1122.52"
   xml:space="preserve"
   id="svg2"
   version="1.1"><metadata
     id="metadata8"><rdf:RDF><cc:Work
         rdf:about=""><dc:format>image/svg+xml</dc:format><dc:type
           rdf:resource="http://purl.org/dc/dcmitype/StillImage" /></cc:Work></rdf:RDF></metadata><defs
     id="defs6"><clipPath
       id="clipPath18"
       clipPathUnits="userSpaceOnUse"><path
         id="path16"
         d="M 0,595.276 H 841.89 V 0 H 0 Z" /></clipPath></defs><g
     transform="matrix(1.3333333,0,0,-1.3333333,0,793.70133)"
     id="g10"><g
       id="g12"><g
         clip-path="url(#clipPath18)"
         id="g14"><g
           transform="translate(773.1943,210.7346)"
           id="g20"><path
             id="path22"
             style="fill:#2f2d2d;fill-opacity:1;fill-rule:evenodd;stroke:none"
             d="m 0,0 c 0,-4.599 0.779,-8.165 2.34,-10.7 1.558,-2.523 3.829,-3.784 6.802,-3.784 3.495,0 6.156,1.238 7.991,3.702 1.846,2.478 2.763,6.068 2.763,10.782 0,9.232 -3.404,13.843 -10.217,13.843 -3.119,0 -5.504,-1.253 -7.18,-3.752 C 0.838,7.592 0,4.23 0,0 m -7.248,0 c 0,5.606 1.526,10.355 4.599,14.23 3.072,3.875 7.192,5.829 12.328,5.829 5.666,0 9.988,-1.768 12.981,-5.276 2.993,-3.511 4.496,-8.441 4.496,-14.783 0,-6.343 -1.57,-11.376 -4.689,-15.104 -3.132,-3.726 -7.569,-5.596 -13.325,-5.596 -5.288,0 -9.339,1.846 -12.159,5.54 -2.82,3.692 -4.231,8.747 -4.231,15.16 m -4.816,17.259 -2.878,-5.78 c -1.562,1.558 -4.073,2.34 -7.525,2.34 -3.278,0 -5.974,-1.377 -8.062,-4.129 -2.099,-2.752 -3.155,-6.227 -3.155,-10.446 0,-4.211 0.976,-7.548 2.926,-10.026 1.938,-2.464 4.53,-3.702 7.777,-3.702 3.713,0 6.615,1.317 8.714,3.978 l 3.246,-5.642 c -2.842,-3.04 -7.018,-4.552 -12.522,-4.552 -5.504,0 -9.773,1.811 -12.822,5.436 -3.049,3.612 -4.567,8.554 -4.567,14.805 0,5.824 1.688,10.699 5.061,14.61 3.381,3.911 7.706,5.871 12.969,5.871 4.519,0 8.13,-0.917 10.838,-2.763 m -64.291,2.099 h 6.982 V -7.339 c 0,-2.111 0.644,-3.831 1.937,-5.163 1.286,-1.317 3.065,-1.982 5.326,-1.982 2.522,0 4.493,0.641 5.892,1.949 1.411,1.294 2.112,3.073 2.112,5.334 v 26.559 h 6.994 v -27.1 c 0,-4.049 -1.365,-7.224 -4.081,-9.518 -2.708,-2.293 -6.333,-3.44 -10.873,-3.44 -4.564,0 -8.086,1.124 -10.574,3.358 -2.478,2.249 -3.715,5.448 -3.715,9.623 z m -25.781,-20.517 v -13.004 c 1.411,-0.127 2.558,-0.186 3.44,-0.186 3.12,0 5.381,0.53 6.792,1.585 1.396,1.053 2.108,2.808 2.108,5.263 0,2.246 -0.652,3.878 -1.961,4.896 -1.308,1.02 -3.601,1.526 -6.859,1.526 -0.677,0 -1.856,-0.021 -3.52,-0.08 m 0,14.895 V 4.301 c 1.079,-0.071 2.202,-0.103 3.384,-0.103 4.552,0 6.836,1.705 6.836,5.125 0,3.029 -2.078,4.54 -6.216,4.54 -1.091,0 -2.431,-0.032 -4.004,-0.127 m 5.057,-33.759 h -12.04 v 39.346 c 5.298,0.253 9.015,0.379 11.146,0.379 4.084,0 7.284,-0.873 9.588,-2.613 2.306,-1.756 3.452,-4.246 3.452,-7.489 0,-3.123 -1.652,-5.587 -4.942,-7.398 4.884,-1.697 7.339,-5.207 7.339,-10.529 0,-3.59 -1.353,-6.434 -4.061,-8.544 -2.705,-2.097 -6.204,-3.152 -10.482,-3.152 m -16.354,-0.024 h -6.765 l -4.096,21.229 -7.924,-21.744 h -2.499 l -7.936,21.744 -4.243,-21.229 h -6.742 l 7.924,39.405 H -142 l 8.521,-26.539 8.327,26.539 h 3.68 z m -58.247,27.892 -4.724,-14.532 h 9.462 z m 9.645,-27.868 -2.866,7.982 H -178.4 l -2.741,-7.982 h -7.762 l 15.686,39.908 h 3.075 l 15.825,-39.908 z m -33.887,-0.539 -19.105,24.919 v -24.404 h -6.722 v 39.405 h 3.357 L -199.8,-4.405 v 23.763 h 6.722 v -39.92 z m -52.204,33.843 V 2.34 c 1.297,-0.106 2.281,-0.161 2.958,-0.161 2.926,0 5.057,0.414 6.409,1.237 1.356,0.826 2.032,2.42 2.032,4.805 0,1.94 -0.723,3.293 -2.178,4.06 -1.447,0.768 -3.729,1.158 -6.848,1.158 -0.756,0 -1.547,-0.055 -2.373,-0.158 m 14.954,-33.304 -10.517,16.262 c -1.056,0.021 -2.535,0.079 -4.437,0.182 v -16.444 h -7.248 v 39.381 c 0.389,0 1.902,0.056 4.543,0.195 2.626,0.137 4.758,0.205 6.362,0.205 10,0 15.002,-3.875 15.002,-11.616 0,-2.33 -0.688,-4.45 -2.076,-6.364 -1.376,-1.917 -3.107,-3.269 -5.207,-4.06 l 11.641,-17.741 z m -46.526,33.166 V 3.922 h 13.005 v -5.943 h -13.005 v -11.798 h 17.844 v -6.204 h -24.828 v 39.381 h 25.127 v -6.215 z m -37.627,8.461 V 5.848 c 1.479,-0.161 2.649,-0.242 3.496,-0.242 3.993,0 6.894,0.665 8.741,2.009 1.835,1.329 2.752,3.499 2.752,6.501 0,5.104 -4.119,7.662 -12.328,7.662 -0.917,0 -1.812,-0.058 -2.661,-0.174 m 0,-23.518 v -18.109 h -8.738 v 49.187 c 5.824,0.253 9.229,0.364 10.217,0.364 7.774,0 13.451,-1.19 17.053,-3.578 3.591,-2.385 5.39,-6.1 5.39,-11.167 0,-11.284 -6.651,-16.929 -19.955,-16.929 -0.986,0 -2.303,0.07 -3.967,0.232 M -372.12,13.143 V 3.922 h 13.005 v -5.943 h -13.005 v -11.798 h 17.845 v -6.204 h -24.831 v 39.381 h 25.127 v -6.215 z m -35.368,0.079 v -26.88 c 1.123,-0.106 2.352,-0.161 3.657,-0.161 3.532,0 6.295,1.284 8.292,3.851 1.997,2.558 2.993,6.149 2.993,10.747 0,8.418 -3.911,12.637 -11.743,12.637 -0.756,0 -1.823,-0.067 -3.199,-0.194 m 1.743,-33.245 h -8.729 v 39.346 c 5.575,0.195 9.073,0.3 10.505,0.3 5.734,0 10.277,-1.676 13.637,-5.037 3.361,-3.357 5.045,-7.82 5.045,-13.372 0,-14.163 -6.824,-21.237 -20.458,-21.237 m 196.175,81.495 v 39.382 h 6.986 V 67.676 h 17.797 v -6.204 z m -21.537,27.867 4.736,-14.527 h -9.462 z m 9.643,-27.867 h 7.722 l -15.828,39.909 h -3.073 l -15.689,-39.909 h 7.763 l 2.74,7.982 h 13.499 z m -47.626,33.303 v -10.94 c 1.296,-0.103 2.281,-0.161 2.961,-0.161 2.922,0 5.054,0.414 6.406,1.237 1.356,0.83 2.033,2.423 2.033,4.806 0,1.938 -0.724,3.292 -2.179,4.061 -1.447,0.769 -3.729,1.159 -6.848,1.159 -0.756,0 -1.547,-0.058 -2.373,-0.162 m 14.954,-33.303 -10.517,16.262 c -1.053,0.024 -2.534,0.079 -4.437,0.186 V 61.472 h -7.248 v 39.382 c 0.391,0 1.902,0.057 4.543,0.195 2.625,0.137 4.757,0.206 6.362,0.206 10,0 15.001,-3.875 15.001,-11.617 0,-2.327 -0.687,-4.45 -2.075,-6.365 -1.376,-1.914 -3.108,-3.269 -5.207,-4.06 l 11.641,-17.741 z m -46.527,33.166 v -9.221 h 13.005 v -5.939 h -13.005 V 67.676 h 17.845 v -6.204 h -24.828 v 39.382 h 25.127 v -6.216 z m -35.368,0.079 V 67.838 c 1.126,-0.104 2.352,-0.162 3.661,-0.162 3.531,0 6.295,1.285 8.288,3.854 1.997,2.559 2.996,6.146 2.996,10.747 0,8.416 -3.91,12.636 -11.743,12.636 -0.759,0 -1.823,-0.069 -3.202,-0.196 m 1.744,-33.245 h -8.728 v 39.348 c 5.576,0.194 9.072,0.297 10.506,0.297 5.734,0 10.274,-1.675 13.637,-5.034 3.358,-3.362 5.043,-7.821 5.043,-13.371 0,-14.163 -6.824,-21.24 -20.458,-21.24 m -33.052,33.166 v -9.221 h 13.005 v -5.939 h -13.005 V 67.676 h 17.845 v -6.204 h -24.828 v 39.382 h 25.128 v -6.216 z m -37.397,8.291 V 91.404 h 17.306 v -7.419 h -17.306 V 61.472 h -8.739 v 49.221 h 32.432 v -7.764 z m 344.161,73.204 v -9.219 h 13.005 v -5.941 h -13.005 v -11.801 h 17.844 v -6.204 h -24.828 v 39.383 h 25.128 v -6.218 z m -35.369,0.081 v -26.881 c 1.124,-0.103 2.352,-0.161 3.658,-0.161 3.531,0 6.298,1.284 8.291,3.852 1.997,2.558 2.996,6.148 2.996,10.748 0,8.418 -3.913,12.638 -11.746,12.638 -0.755,0 -1.822,-0.07 -3.199,-0.196 m 1.744,-33.246 h -8.727 v 39.347 c 5.572,0.196 9.071,0.299 10.502,0.299 5.737,0 10.277,-1.675 13.638,-5.035 3.36,-3.361 5.048,-7.822 5.048,-13.371 0,-14.164 -6.824,-21.24 -20.461,-21.24 m -30.265,27.867 -4.724,-14.529 h 9.461 z m 9.645,-27.867 -2.868,7.983 h -13.498 l -2.741,-7.983 h -7.764 l 15.689,39.909 h 3.072 l 15.827,-39.909 z m -51.355,33.246 v -26.881 c 1.123,-0.103 2.352,-0.161 3.657,-0.161 3.532,0 6.299,1.284 8.292,3.852 1.997,2.558 2.994,6.148 2.994,10.748 0,8.418 -3.912,12.638 -11.744,12.638 -0.755,0 -1.823,-0.07 -3.199,-0.196 m 1.743,-33.246 h -8.729 v 39.347 c 5.575,0.196 9.073,0.299 10.506,0.299 5.736,0 10.279,-1.675 13.636,-5.035 3.361,-3.361 5.049,-7.822 5.049,-13.371 0,-14.164 -6.828,-21.24 -20.462,-21.24 m -23.922,39.383 h 6.995 v -39.382 h -6.995 z m -30.152,-37.204 2.582,6.262 c 2.752,-1.938 5.472,-2.901 8.145,-2.901 4.092,0 6.144,1.432 6.144,4.3 0,1.342 -0.482,2.626 -1.443,3.841 -0.977,1.216 -2.961,2.581 -5.986,4.095 -3.017,1.513 -5.049,2.764 -6.105,3.738 -1.041,0.975 -1.844,2.145 -2.417,3.488 -0.561,1.342 -0.838,2.831 -0.838,4.459 0,3.04 1.112,5.574 3.338,7.581 2.237,2.008 5.092,3.005 8.588,3.005 4.555,0 7.892,-0.848 10.023,-2.546 l -2.12,-6.02 c -2.455,1.753 -5.048,2.627 -7.764,2.627 -1.618,0 -2.868,-0.426 -3.749,-1.274 -0.885,-0.849 -1.332,-1.962 -1.332,-3.326 0,-2.248 2.502,-4.599 7.501,-7.041 2.636,-1.285 4.53,-2.477 5.698,-3.556 1.158,-1.089 2.054,-2.351 2.661,-3.796 0.608,-1.434 0.908,-3.051 0.908,-4.816 0,-3.189 -1.25,-5.815 -3.775,-7.879 -2.511,-2.065 -5.896,-3.097 -10.115,-3.097 -3.681,0 -6.995,0.952 -9.944,2.856 m -24.495,31.124 v -10.94 c 1.297,-0.103 2.284,-0.161 2.961,-0.161 2.923,0 5.057,0.414 6.409,1.238 1.353,0.826 2.029,2.422 2.029,4.806 0,1.938 -0.72,3.292 -2.175,4.061 -1.448,0.768 -3.729,1.157 -6.848,1.157 -0.759,0 -1.55,-0.056 -2.376,-0.161 m 14.954,-33.303 -10.515,16.262 c -1.055,0.023 -2.534,0.081 -4.439,0.184 v -16.446 h -7.248 v 39.383 c 0.392,0 1.905,0.057 4.543,0.195 2.625,0.137 4.757,0.206 6.365,0.206 9.997,0 14.999,-3.877 14.999,-11.617 0,-2.33 -0.688,-4.45 -2.076,-6.366 -1.373,-1.915 -3.108,-3.268 -5.204,-4.059 l 11.641,-17.742 z m -46.526,33.165 v -9.219 h 13.007 v -5.941 h -13.007 v -11.801 h 17.846 v -6.204 h -24.83 v 39.383 h 25.127 v -6.218 z m -26.536,-33.704 h -3.843 l -14.726,39.922 h 7.687 l 9.114,-26.619 9.624,26.619 h 7.524 z m -29.865,39.922 h 6.998 v -39.382 h -6.998 z m -11.041,-39.922 -19.109,24.92 v -24.404 h -6.718 v 39.406 h 3.358 l 18.591,-23.764 v 23.764 h 6.722 v -39.922 z m -71.46,49.761 h 8.739 v -33.362 c 0,-2.649 0.802,-4.792 2.42,-6.456 1.617,-1.652 3.831,-2.478 6.65,-2.478 3.167,0 5.619,0.803 7.374,2.432 1.768,1.629 2.638,3.843 2.638,6.662 v 33.202 h 8.741 v -33.866 c 0,-5.069 -1.699,-9.025 -5.092,-11.893 -3.396,-2.867 -7.927,-4.301 -13.593,-4.301 -5.707,0 -10.114,1.4 -13.222,4.198 -3.097,2.799 -4.655,6.813 -4.655,12.031 z" /></g><g
           transform="translate(275.7134,156.0217)"
           id="g24"><path
             id="path26"
             style="fill:#a4282d;fill-opacity:1;fill-rule:evenodd;stroke:none"
             d="M 0,0 5.175,-0.847 3.643,6.428 Z m -6.181,-6.036 2.529,-0.412 2.438,4.302 6.901,-1.126 1.026,-4.867 3.569,-0.582 -3.846,18.239 -3.484,0.567 z m -12.657,4.566 2.602,-0.377 c 1.352,-0.193 2.42,-0.126 3.202,0.203 0.782,0.327 1.447,0.98 2.005,1.958 0.565,0.977 0.929,2.1 1.103,3.374 0.167,1.213 0.109,2.325 -0.168,3.319 -0.279,1.003 -0.747,1.793 -1.397,2.382 -0.658,0.59 -1.84,1.007 -3.549,1.255 l -2.102,0.302 z m -3.814,-1.937 6.895,-1 c 2.02,-0.291 3.661,-0.127 4.931,0.488 1.267,0.614 2.296,1.555 3.087,2.816 0.791,1.259 1.306,2.749 1.538,4.464 0.238,1.752 0.123,3.296 -0.344,4.625 -0.468,1.328 -1.194,2.39 -2.182,3.181 -0.987,0.791 -2.443,1.326 -4.375,1.605 l -7.198,1.041 z m -7.742,0.797 3.497,-0.38 1.767,17.298 -3.496,0.379 z m -11.928,1.566 3.516,-0.317 7.486,16.786 -2.522,0.226 -5.802,-12.987 -3.684,13.843 -3.743,0.335 z m -17.692,8.201 5.234,-0.282 -2.264,7.064 z m -5.533,-6.666 2.558,-0.138 1.985,4.54 6.977,-0.376 1.514,-4.732 3.608,-0.193 -5.675,17.723 -3.523,0.189 z m -8.73,9.733 0.662,-0.024 c 1.287,-0.047 2.249,0.238 2.878,0.856 0.626,0.614 0.956,1.352 0.985,2.214 0.015,0.485 -0.067,0.928 -0.244,1.329 -0.179,0.405 -0.459,0.723 -0.853,0.966 -0.394,0.245 -1.028,0.38 -1.914,0.41 l -1.317,0.046 z m -3.761,-9.075 3.447,-0.123 0.232,6.813 1.435,-0.053 c 1.996,-0.073 3.604,0.379 4.83,1.356 1.223,0.975 1.87,2.434 1.935,4.372 0.035,1.011 -0.112,1.855 -0.435,2.534 -0.329,0.677 -0.829,1.212 -1.503,1.602 -0.673,0.389 -1.855,0.612 -3.543,0.674 l -5.806,0.208 z m -21.216,0.319 h 2.76 V 14.77 l 4.046,-12.141 h 2.829 l 4.122,11.964 V 1.468 h 3.243 v 17.391 h -4.084 l -4.193,-12.235 -4.075,12.235 h -4.648 z m -7.751,0.038 3.514,0.061 -0.295,17.392 -3.516,-0.064 z m -21.776,-0.568 c 1.823,-0.324 3.42,-0.461 4.784,-0.412 2.3,0.082 3.961,0.647 4.981,1.694 1.023,1.05 1.505,2.282 1.458,3.711 -0.032,0.994 -0.317,1.879 -0.849,2.661 -0.541,0.773 -1.761,1.658 -3.664,2.667 l -1.241,0.649 c -1.079,0.571 -1.758,1.03 -2.031,1.373 -0.28,0.341 -0.43,0.715 -0.444,1.123 -0.018,0.533 0.188,0.994 0.62,1.391 0.429,0.397 1.07,0.609 1.92,0.639 1.023,0.038 2.42,-0.247 4.187,-0.844 l -0.094,2.781 c -1.717,0.335 -3.255,0.483 -4.614,0.432 -1.822,-0.065 -3.201,-0.579 -4.142,-1.549 -0.938,-0.965 -1.388,-2.103 -1.344,-3.408 0.035,-1.041 0.358,-1.95 0.97,-2.72 0.6,-0.768 1.729,-1.591 3.39,-2.461 l 1.159,-0.605 c 1.079,-0.571 1.761,-1.044 2.044,-1.42 0.285,-0.383 0.438,-0.815 0.452,-1.3 0.024,-0.633 -0.2,-1.188 -0.67,-1.658 -0.473,-0.471 -1.197,-0.724 -2.185,-0.759 -0.547,-0.021 -1.147,0.015 -1.802,0.099 -0.653,0.083 -1.65,0.386 -2.987,0.901 z m -17.582,15.854 0.723,-10.62 c 0.135,-2.008 0.526,-3.452 1.176,-4.325 0.644,-0.879 1.485,-1.509 2.52,-1.906 1.035,-0.391 2.246,-0.538 3.646,-0.438 1.42,0.103 2.572,0.435 3.466,1.003 0.891,0.567 1.553,1.306 1.982,2.214 0.433,0.902 0.579,2.361 0.444,4.369 l -0.726,10.656 -3.049,-0.218 0.738,-10.89 c 0.12,-1.768 -0.094,-2.976 -0.638,-3.641 -0.547,-0.658 -1.317,-1.023 -2.314,-1.094 -1.009,-0.073 -1.853,0.18 -2.526,0.759 -0.676,0.582 -1.082,1.832 -1.214,3.752 l -0.72,10.632 z m -10.647,-18.371 3.513,0.318 -1.27,14.948 6.028,0.544 -0.203,2.375 -15.569,-1.402 0.203,-2.376 6.028,0.541 z m -17.915,7.375 0.8,0.1 c 1.44,0.182 2.396,0.631 2.863,1.343 0.468,0.714 0.656,1.482 0.559,2.299 -0.085,0.709 -0.376,1.241 -0.87,1.6 -0.494,0.361 -1.423,0.453 -2.794,0.279 l -1.211,-0.152 z m -2.164,-9.842 3.29,0.418 -0.844,7.054 1.914,0.241 5.014,-6.527 4.248,0.538 -6.448,7.365 c 0.979,0.603 1.697,1.394 2.155,2.36 0.462,0.971 0.63,1.965 0.509,2.976 -0.1,0.848 -0.385,1.579 -0.855,2.203 -0.468,0.623 -1.059,1.058 -1.768,1.302 -0.714,0.247 -1.711,0.291 -2.996,0.13 l -6.277,-0.794 z m -7.754,-1.405 3.482,0.503 -2.352,17.223 -3.482,-0.502 z m -11.761,-2.264 3.479,0.632 3.007,18.206 -2.493,-0.453 -2.337,-14.089 -7.039,12.387 -3.702,-0.67 z m -20.014,27.659 c 83.018,18.791 172.561,14.348 238.132,0 l -4.04,-23.366 c 4.675,-0.865 9.562,-1.861 14.519,-3.008 l -6.692,-32.355 c -8.709,2.294 -35.374,7.054 -45.154,7.574 l 32.664,8.918 v 0.562 c -64.21,13.575 -145.164,17.03 -221.696,-0.201 v -0.361 l 32.875,-8.909 c -9.6,-0.458 -36.594,-5.275 -45.365,-7.583 l -6.695,32.355 c 5.292,1.223 10.499,2.276 15.463,3.181 z" /></g><g
           transform="translate(178.02,423.0788)"
           id="g28"><path
             id="path30"
             style="fill:#a4282d;fill-opacity:1;fill-rule:evenodd;stroke:none"
             d="m 0,0 c -5.898,-0.042 -24.681,3.403 -24.78,15.837 -0.039,4.73 3.922,9.171 6.28,13.245 14.534,19.475 22.734,28.401 12.449,46.571 3.199,-0.559 8.077,-5.032 10.6,-8.308 C 9.009,59.677 9.43,51.689 6.569,42.822 3.555,35.44 -6.31,26.218 -3.21,17.75 -0.314,9.836 9.803,9.207 6.513,17.522 c -1.697,4.291 -3.796,4.715 -2.47,9.671 2.135,7.98 12.414,18.084 7.909,27.691 10.365,-5.91 4.005,-22.022 4.981,-24.835 0.547,-2.337 8.55,-9.447 7.954,-14.266 C 23.422,3.969 9.7,-0.54 0,0" /></g><g
           transform="translate(111.9082,419.9958)"
           id="g32"><path
             id="path34"
             style="fill:#a4282d;fill-opacity:1;fill-rule:evenodd;stroke:none"
             d="m 0,0 c -5.895,-0.04 -24.681,3.403 -24.78,15.839 -0.039,4.728 3.925,9.169 6.28,13.243 14.534,19.476 22.734,28.401 12.452,46.572 3.196,-0.56 8.074,-5.032 10.6,-8.307 C 9.009,59.677 9.43,51.69 6.572,42.822 3.558,35.44 -6.307,26.218 -3.208,17.75 -0.312,9.836 9.803,9.209 6.516,17.522 c -1.7,4.293 -3.799,4.715 -2.473,9.671 2.135,7.98 12.414,18.084 7.913,27.691 10.361,-5.908 4.001,-22.022 4.98,-24.833 0.544,-2.338 8.547,-9.447 7.951,-14.268 C 23.425,3.971 9.7,-0.54 0,0" /></g><g
           transform="translate(244.1318,419.9958)"
           id="g36"><path
             id="path38"
             style="fill:#a4282d;fill-opacity:1;fill-rule:evenodd;stroke:none"
             d="m 0,0 c -5.898,-0.04 -24.683,3.403 -24.783,15.839 -0.035,4.728 3.925,9.169 6.28,13.243 14.534,19.476 22.737,28.401 12.452,46.572 3.196,-0.56 8.074,-5.032 10.6,-8.307 C 9.006,59.677 9.427,51.69 6.569,42.822 3.555,35.44 -6.31,26.218 -3.21,17.75 -0.314,9.836 9.8,9.209 6.513,17.522 4.816,21.815 2.717,22.237 4.04,27.193 6.175,35.173 16.454,45.277 11.952,54.884 22.314,48.976 15.954,32.862 16.933,30.051 17.477,27.713 25.48,20.604 24.884,15.783 23.422,3.971 9.7,-0.54 0,0" /></g><g
           transform="translate(178.0879,378.0061)"
           id="g40"><path
             id="path42"
             style="fill:#2f2d2d;fill-opacity:1;fill-rule:evenodd;stroke:none"
             d="m 0,0 c -32.696,0 -67.932,-2.635 -99.725,-10.081 2.785,-50.646 0.065,-152.481 23.19,-179.787 -2.879,-0.47 -5.757,-0.97 -8.636,-1.499 -16.694,27.6 -18.582,96.461 -20.055,149.494 -0.382,14.003 -0.735,26.905 -1.279,37.65 l -0.065,0.084 0.065,0.019 C -71.769,4.004 -35.595,7.052 0,7.052 35.595,7.051 71.76,4.013 106.487,-4.12 l 0.083,-0.019 -0.006,-0.084 c -0.588,-10.745 -0.944,-23.647 -1.332,-37.65 -1.467,-53.033 -3.373,-121.894 -20.008,-149.494 -2.911,0.529 -5.81,1.029 -8.703,1.499 23.157,27.306 20.422,129.141 23.201,179.787 C 67.923,-2.635 32.696,0 0,0" /></g><g
           transform="translate(195.1445,402.4763)"
           id="g44"><path
             id="path46"
             style="fill:#2f2d2d;fill-opacity:1;fill-rule:evenodd;stroke:none"
             d="m 0,0 c -4.975,1.255 -11.111,1.796 -17.057,1.796 -5.945,0 -12.081,-0.541 -17.056,-1.796 -7.154,4.626 -7.798,13.078 -0.15,16.43 5.622,0.947 11.584,1.616 17.206,1.616 5.625,0 11.588,-0.669 17.207,-1.616 C 7.797,13.078 7.156,4.626 0,0" /></g><g
           transform="translate(104.7549,339.6223)"
           id="g48"><path
             id="path50"
             style="fill:#2f2d2d;fill-opacity:1;fill-rule:evenodd;stroke:none"
             d="m 0,0 c -5.148,17.585 10.523,28.038 20.935,28.8 28.532,2.09 45.135,-4.954 76.832,-6.876 11.784,-0.109 23.296,0.395 35.165,5.309 C 130.218,18.846 93.785,12.31 78.873,12.23 73.615,12.202 68.014,12.556 62.854,13.354 59.649,13.85 11.57,21.285 13.025,5.573 13.157,4.135 15.03,4.144 15.61,4.381 24.439,7.999 30.696,10.839 39.923,11.173 58.34,11.84 71.01,6.245 91.26,10.392 77.12,1.126 41.125,4.36 33.839,2.166 26.433,-0.066 20.476,-4.124 13.819,-6.008 3.058,-9.055 0.358,-1.222 0,0" /></g><g
           transform="translate(120.6558,296.8635)"
           id="g52"><path
             id="path54"
             style="fill:#2f2d2d;fill-opacity:1;fill-rule:evenodd;stroke:none"
             d="M 0,0 C 1.449,2.961 3.293,6.079 5.866,8.139 10.162,11.58 15.48,2.806 10.105,0.832 7,-0.312 3.366,-0.15 0,0" /></g><g
           transform="translate(105.3486,290.218)"
           id="g56"><path
             id="path58"
             style="fill:#2f2d2d;fill-opacity:1;fill-rule:evenodd;stroke:none"
             d="m 0,0 c -2.535,1.253 -5.566,2.594 -8.315,3.435 2.552,0.694 5.11,1.931 7.518,3.064 -2.749,2.26 -5.707,4.744 -8.997,5.718 -4.878,1.445 -6.086,-6.522 -2.782,-8.65 -3.772,-1.643 -3.14,-9.333 1.285,-9.482 -1.464,-2.361 1.006,-7.266 4.131,-5.619 2.338,1.232 4.872,4.328 5.843,5.631 -1.944,0.478 -4.052,0.981 -6.048,1.167 2.54,1.302 5.08,3.084 7.365,4.736" /></g><g
           transform="translate(118.9707,191.4465)"
           id="g60"><path
             id="path62"
             style="fill:#2f2d2d;fill-opacity:1;fill-rule:evenodd;stroke:none"
             d="m 0,0 c 13.137,2.305 18.803,4.577 26.88,8.142 8.63,3.239 15.81,7.171 24.401,12.504 -7.921,0.515 -14.519,3.561 -19.62,7.407 C 24.966,33.104 20.899,39.502 20.018,43.419 19.247,39.014 17.765,35.26 15.14,31.549 12.276,27.497 7.021,19.167 1.879,24.483 c -2.429,1.647 -9.582,-2.008 -13.675,-1.07 -8.106,1.861 -7.965,-6.672 -3.396,-8.965 -3.811,-2.626 -2.197,-9.427 3.049,-10.017 -1.673,-2.65 2.135,-7.075 6.395,-5.525 C -3.781,-0.377 -2.22,-0.433 0,0" /></g><g
           transform="translate(125.3276,257.7844)"
           id="g64"><path
             id="path66"
             style="fill:#2f2d2d;fill-opacity:1;fill-rule:evenodd;stroke:none"
             d="m 0,0 c 1.623,-0.944 3.96,-2.278 5.316,-3.313 0.144,-0.11 0.267,-0.204 0.373,-0.286 0.774,2.387 1.724,4.323 2.811,5.905 1.112,1.61 2.37,2.854 3.731,3.831 0.409,2.363 0.992,4.072 1.403,5.751 0.379,1.554 2.517,5.004 4.143,6.726 -0.712,0.345 -2.164,0.424 -3.237,0.58 C 10.553,19.779 4.708,21.379 2.299,22.939 1.964,19.076 1.559,15.298 1.156,11.517 0.747,7.718 0.338,3.916 0,0" /></g><g
           transform="translate(127.8594,330.5251)"
           id="g68"><path
             id="path70"
             style="fill:#2f2d2d;fill-opacity:1;fill-rule:evenodd;stroke:none"
             d="M 0,0 C 3.308,-1.78 6.083,-3.473 5.957,-8.765 5.872,-12.166 2.696,-17.202 0,-18.318 h -31.711 c -2.696,1.116 -5.872,6.152 -5.954,9.553 -0.132,5.292 2.646,6.985 5.954,8.765 z" /></g><g
           transform="translate(243.7173,190.2141)"
           id="g72"><path
             id="path74"
             style="fill:#2f2d2d;fill-opacity:1;fill-rule:evenodd;stroke:none"
             d="m 0,0 c 3.714,2.314 6.901,5.524 9.488,9.662 3.485,5.504 5.469,11.878 5.519,18.867 0.041,5.44 -0.74,11.253 -1.482,17.322 -0.932,7.662 -16.347,44.665 -19.829,51.737 -2.743,5.577 -7.633,15.171 -7.262,19.347 0.235,9.038 7.588,14.455 16.601,14.383 5.069,-0.043 10.687,-3.681 13.527,-8.292 v -10e-4 c 2.109,-3.779 2.409,-8.638 1.359,-14.607 -0.003,-0.016 -0.035,-0.078 -0.047,-0.09 -9.276,-8.803 -7.433,-15.077 -4.207,-26.051 1.955,-6.65 4.416,-15.018 5.233,-26.694 0.976,9.617 1.852,18.968 2.652,28.282 0.859,9.989 1.997,14.89 2.711,25.084 v 0.004 -0.004 0.004 c 0.3,7.076 -0.855,14.203 -4.487,19.15 -3.954,5.387 -9.982,9.003 -17.706,8.612 -17.95,-0.908 -26.692,-16.383 -18.909,-31.468 C -10.952,93.83 -3.378,74.915 1.32,62.866 6.034,50.775 8.218,40.508 4.011,36.342 3.943,36.271 3.808,36.283 3.752,36.362 c -4.425,6.175 -10.835,8.392 -17.468,10.688 -7.815,2.702 -16.383,6.389 -22.011,15.86 -1.191,-2.449 -3.287,-4.619 -5.607,-6.378 -3.173,-2.399 -9.162,-5.545 -11.45,-6.053 -0.132,-0.03 -0.246,0.105 -0.191,0.223 0.256,0.547 0.515,1.111 0.694,1.847 0.165,0.664 0.271,1.472 0.265,2.537 -2.12,-1.838 -2.99,-2.05 -6.498,-3.907 -8.259,-4.375 -17.027,-8.398 -16.195,-17.319 0.947,-10.126 12.47,-12.828 25.157,-13.61 7.365,-0.453 14.719,-0.924 20.602,-3.243 0.044,1.055 0.765,3.043 1.788,4.815 0.753,1.3 1.803,2.491 3.208,3.132 0.135,0.062 0.291,-0.091 0.223,-0.221 -1.394,-2.652 -2.022,-7.432 -1.967,-9.823 C -25.404,2.255 -9.262,1.05 0,0" /></g><g
           transform="translate(168.7407,333.5329)"
           id="g76"><path
             id="path78"
             style="fill:#2f2d2d;fill-opacity:1;fill-rule:evenodd;stroke:none"
             d="m 0,0 c -6.607,-1.156 -13.802,-3.933 -18.888,-5.895 -0.538,-0.208 -0.779,-0.303 -0.986,-0.382 0.263,-1.443 0.109,-2.772 -0.041,-4.059 -0.291,-2.481 -0.564,-4.797 2.621,-7.279 1.696,3.312 4.251,3.647 6.747,2.574 1.682,-0.725 3.323,-2.121 4.619,-3.658 1.3,-1.537 2.261,-3.23 2.576,-4.536 0.306,-1.272 0.038,-2.238 -1.017,-2.541 -0.091,-0.061 -0.206,-0.113 -0.336,-0.151 -0.611,-0.179 -1.943,-0.198 -3.29,0.001 -1.358,0.2 -2.766,0.628 -3.534,1.341 -0.264,0.244 -0.458,0.522 -0.561,0.836 -0.092,0.194 -0.171,0.346 -0.239,0.462 -0.058,-0.253 -0.093,-0.575 -0.111,-0.854 0.079,-1.326 0.353,-2.658 0.835,-3.821 0.394,-0.95 0.92,-1.782 1.59,-2.395 0.262,0.086 0.571,0.196 0.909,0.316 1.214,0.434 2.823,1.01 4.549,1.249 0,0 0.064,0.004 0.067,0.004 1.141,-0.002 2.358,-0.04 3.593,-0.08 C -0.6,-28.876 -0.3,-28.887 0,-28.896 v 22.674 h -0.003 c -0.018,0 -0.032,0 -0.05,-10e-4 H -0.1 c -0.015,0 -0.032,-0.002 -0.047,-0.002 -0.015,0 -0.032,0 -0.047,-0.001 v 0.001 c -0.018,-0.001 -0.033,-0.001 -0.047,-0.001 h -0.047 -0.05 c -0.015,0 -0.033,-0.002 -0.047,-0.002 h -0.047 -0.047 -0.047 c -0.018,0 -0.033,0 -0.047,0.002 h -0.048 -0.046 -0.047 c -0.015,0 -0.033,0.001 -0.048,0.001 h -0.047 c -0.014,0 -0.029,0 -0.046,0.002 h -0.048 c -0.014,0 -0.029,10e-4 -0.044,10e-4 -0.017,0 -0.032,0 -0.047,0.002 -0.014,0 -0.032,0 -0.047,10e-4 h -0.044 -0.003 c -0.015,0.002 -0.029,0.002 -0.044,0.002 -0.014,10e-4 -0.032,10e-4 -0.047,0.003 -0.015,0 -0.029,0 -0.044,0.001 -0.015,0 -0.032,0 -0.047,0.002 -0.015,0 -0.03,0 -0.044,0.001 -0.015,0 -0.033,0.002 -0.047,0.002 -0.015,0 -0.03,0.001 -0.044,0.002 -0.015,0 -0.033,0 -0.045,0.002 h -0.003 c -0.014,0 -0.029,10e-4 -0.044,10e-4 -0.014,0.002 -0.029,0.002 -0.044,0.003 -0.014,0 -0.029,0.002 -0.044,0.002 -0.015,0.001 -0.029,0.001 -0.047,0.003 -0.014,0 -0.026,0.001 -0.041,0.003 h -0.003 c -0.014,0 -0.03,0.001 -0.044,0.001 -0.015,0.002 -0.03,0.003 -0.044,0.003 -0.015,10e-4 -0.029,10e-4 -0.044,0.003 -0.015,0 -0.026,10e-4 -0.042,0.003 h -0.003 c -0.011,0.001 -0.026,0.001 -0.041,0.003 -0.014,0 -0.029,0.002 -0.043,0.003 -0.015,0.001 -0.03,0.001 -0.045,0.003 -0.015,0 -0.029,0.002 -0.041,0.003 -0.015,0.001 -0.029,0.001 -0.044,0.003 -0.015,0 -0.03,10e-4 -0.044,0.003 -0.012,10e-4 -0.027,10e-4 -0.041,0.002 -0.015,0.002 -0.03,0.002 -0.044,0.004 -0.012,0.001 -0.027,0.001 -0.041,0.003 -0.015,0.001 -0.027,0.003 -0.042,0.003 -0.014,0.001 -0.029,0.003 -0.041,0.004 h -0.003 c -0.011,0 -0.026,0.002 -0.041,0.003 -0.011,0 -0.027,10e-4 -0.038,0.003 h -0.003 c -0.012,0.001 -0.027,0.003 -0.038,0.004 h -0.003 c -0.012,0 -0.027,0.002 -0.038,0.003 h -0.003 c -0.013,0 -0.027,0.003 -0.039,0.003 -0.015,0.002 -0.029,0.002 -0.041,0.003 -0.015,0.002 -0.026,0.003 -0.041,0.004 -0.012,0.002 -0.026,0.002 -0.038,0.003 h -0.003 c -0.012,0.002 -0.027,0.003 -0.039,0.005 -0.014,0.001 -0.026,0.003 -0.038,0.003 -0.014,10e-4 -0.026,0.003 -0.041,0.004 -0.011,0.002 -0.026,0.003 -0.038,0.003 -0.012,0.002 -0.027,0.003 -0.038,0.004 -0.015,0.002 -0.027,0.003 -0.038,0.003 -0.015,0.002 -0.027,0.003 -0.038,0.005 -0.016,10e-4 -0.027,0.003 -0.039,0.003 h -0.003 l -0.035,0.004 c -0.015,0.002 -0.026,0.003 -0.038,0.005 -0.012,0 -0.024,0.001 -0.039,0.002 l -0.035,0.005 c -0.015,0 -0.026,10e-4 -0.038,0.003 -0.012,0.001 -0.023,0.003 -0.036,0.003 -0.014,0.001 -0.026,0.003 -0.038,0.004 l -0.035,0.004 c -0.012,0.002 -0.023,0.002 -0.035,0.003 -0.012,0.002 -0.024,0.003 -0.036,0.005 -0.011,0.001 -0.023,0.003 -0.035,0.004 l -0.197,0.021 0.13,0.148 c 0.011,0.012 0.02,0.023 0.029,0.034 0.012,0.012 0.021,0.024 0.032,0.034 0.012,0.012 0.021,0.023 0.033,0.035 0.012,0.012 0.02,0.022 0.032,0.034 0.012,0.012 0.021,0.024 0.032,0.036 0.012,0.01 0.024,0.021 0.036,0.033 0.011,0.012 0.023,0.022 0.035,0.034 0.011,0.012 0.024,0.023 0.035,0.036 0.012,0.011 0.024,0.023 0.039,0.035 0.011,0.01 0.023,0.022 0.035,0.033 0.011,0.012 0.026,0.022 0.038,0.034 0.012,0.012 0.027,0.024 0.038,0.035 0.015,0.012 0.027,0.024 0.041,0.036 0,0 0,-0.002 0,0 0.012,0.01 0.027,0.023 0.038,0.034 0.016,0.011 0.03,0.023 0.042,0.033 0.015,0.012 0.029,0.024 0.044,0.036 0.012,0.012 0.026,0.023 0.041,0.034 0.015,0.011 0.03,0.023 0.041,0.035 0.015,0.01 0.03,0.022 0.044,0.033 0.015,0.011 0.03,0.023 0.044,0.035 0.015,0.011 0.03,0.022 0.045,0.033 0.017,0.011 0.032,0.022 0.047,0.034 0.014,0.01 0.029,0.022 0.044,0.032 h 0.002 c 0.015,0.012 0.03,0.024 0.048,0.034 0.014,0.012 0.029,0.024 0.047,0.034 0.014,0.01 0.032,0.022 0.047,0.032 0.018,0.012 0.032,0.022 0.05,0.034 0.015,0.011 0.032,0.022 0.047,0.033 0.017,0.011 0.032,0.022 0.05,0.032 0.017,0.01 0.035,0.022 0.05,0.032 0.017,0.012 0.035,0.022 0.053,0.032 0.017,0.011 0.035,0.022 0.05,0.033 h 0.002 c 0.018,0.01 0.033,0.021 0.051,0.031 0.017,0.012 0.035,0.022 0.052,0.032 0.018,0.01 0.036,0.021 0.054,0.031 0.017,0.01 0.035,0.02 0.052,0.031 0.021,0.01 0.038,0.021 0.056,0.031 0.018,0.01 0.036,0.02 0.056,0.031 0.018,0.008 0.035,0.019 0.053,0.029 0.02,0.01 0.038,0.02 0.059,0.029 0.018,0.011 0.035,0.021 0.056,0.03 0.017,0.01 0.035,0.021 0.056,0.029 0.017,0.011 0.038,0.019 0.055,0.03 h 0.003 l 0.056,0.027 c 0.021,0.011 0.039,0.019 0.059,0.029 0.021,0.01 0.041,0.018 0.059,0.028 0.02,0.01 0.041,0.019 0.059,0.027 0.02,0.009 0.041,0.019 0.061,0.027 0.021,0.01 0.038,0.017 0.059,0.026 0.021,0.009 0.041,0.019 0.062,0.028 0.02,0.008 0.041,0.017 0.061,0.025 0.021,0.008 0.042,0.018 0.062,0.027 0.021,0.007 0.039,0.014 0.062,0.023 0.02,0.009 0.041,0.018 0.062,0.025 0.02,0.009 0.041,0.016 0.061,0.025 0.021,0.008 0.045,0.016 0.065,0.024 0.021,0.009 0.041,0.016 0.062,0.023 0.023,0.008 0.044,0.015 0.065,0.022 0.02,0.008 0.044,0.015 0.064,0.022 0.024,0.008 0.045,0.016 0.065,0.024 0.024,0.007 0.044,0.013 0.065,0.02 0.023,0.008 0.044,0.015 0.068,0.021 0.02,0.008 0.044,0.015 0.064,0.021 0.024,0.007 0.044,0.013 0.068,0.02 0.018,0.005 0.032,0.011 0.05,0.015 h 0.003 c 0.017,0.006 0.032,0.01 0.052,0.016 0.018,0.004 0.036,0.009 0.054,0.015 L 0,-3.897 Z m -30.423,-90.464 c 0.15,0.384 0.77,0.361 0.888,-0.033 2.455,-8.194 7.209,-15.751 13.784,-21.175 4.46,-3.682 9.759,-6.378 15.751,-7.621 v 2.636 c -0.167,0.195 -0.329,0.392 -0.485,0.594 -1.608,2.076 -2.764,4.652 -2.914,7.513 -0.15,2.858 0.697,5.992 3.096,9.182 0.097,0.132 0.197,0.262 0.303,0.391 v 55.927 c -5.319,-2.408 -11.485,-5.662 -16.58,-9.426 -4.89,-3.614 -8.786,-7.69 -9.953,-11.911 1.158,0.693 2.341,1.208 3.622,1.55 1.635,0.434 3.432,0.59 5.557,0.484 0.438,-0.023 0.542,-0.737 0.124,-0.87 -1.188,-0.376 -2.394,-0.85 -3.584,-1.414 -4.895,-2.326 -9.618,-6.219 -12.487,-11.438 -2.867,-5.213 -3.887,-11.761 -1.385,-19.406 0.399,-1.22 0.888,-2.467 1.473,-3.74 0.588,1.459 1.029,3.017 1.464,4.56 0.403,1.427 0.803,2.841 1.326,4.197 M 0,-98.977 c 2.976,3.764 8.142,7.595 16.407,11.114 1.205,0.63 3.878,1.991 6.303,4.158 2.42,2.162 4.625,5.14 4.952,9.038 0.035,0.436 0.768,0.515 0.908,0.097 0.618,-1.828 0.771,-3.765 0.589,-5.76 -0.147,-1.643 -0.521,-3.325 -1.044,-5.018 4.454,2.44 7.698,6.68 10.026,11.337 4.228,8.453 5.448,18.248 5.478,21.27 0.006,0.37 0.488,0.571 0.779,0.324 0.603,-0.524 1.229,-1.206 1.767,-2.059 0.1,-0.161 0.197,-0.329 0.291,-0.502 0.25,5.627 -0.32,10.473 -1.682,15.013 -1.528,5.088 -4.051,9.797 -7.524,14.792 -0.194,0.279 0.012,0.672 0.362,0.69 0.5,0.026 1.05,-0.074 1.658,-0.32 0.23,-0.091 0.468,-0.204 0.715,-0.339 -2.573,6.38 -5.984,10.301 -10.153,15.095 -0.441,0.506 -0.888,1.019 -1.258,1.448 -0.059,0.069 -0.115,0.287 -0.097,0.376 0.323,1.397 0.535,2.12 1.014,2.747 0.42,0.548 1.006,0.963 2.026,1.652 -1.382,1.432 -4.584,2.553 -8.154,3.318 -4.698,1.006 -9.979,1.373 -12.646,1.025 1.309,-2.205 1.859,-4.475 1.923,-6.598 0.091,-2.973 -0.776,-5.667 -1.831,-7.496 -0.224,-0.388 -0.944,-0.152 -0.871,0.283 0.206,1.257 0.65,3.704 0.52,6.35 C 10.335,-4.387 9.673,-1.629 7.736,0.425 5.39,0.681 2.743,0.479 0,0 v -3.897 l 0.026,0.008 c 0.018,0.005 0.036,0.008 0.053,0.014 0.018,0.004 0.036,0.01 0.053,0.013 0.018,0.005 0.035,0.008 0.056,0.013 0.018,0.005 0.036,0.009 0.053,0.014 0.018,0.004 0.035,0.008 0.056,0.011 l 0.053,0.013 c 0.018,0.005 0.035,0.008 0.056,0.012 0.017,0.003 0.035,0.007 0.052,0.012 h 0.003 c 0.018,0.003 0.036,0.007 0.054,0.01 0.02,0.005 0.038,0.007 0.055,0.012 0.018,0.003 0.038,0.006 0.056,0.009 0.018,0.004 0.039,0.007 0.056,0.01 l 0.056,0.009 c 0.018,0.004 0.038,0.006 0.056,0.008 0.018,0.004 0.038,0.006 0.056,0.01 0.017,0.002 0.038,0.006 0.056,0.008 0.02,0.003 0.038,0.005 0.055,0.008 C 0.982,-3.7 1,-3.699 1.018,-3.696 H 1.02 c 0.018,0.002 0.036,0.005 0.056,0.008 0.018,0.001 0.038,0.004 0.056,0.005 0.02,0.003 0.038,0.005 0.059,0.006 0.017,0.003 0.038,0.005 0.056,0.006 0.02,0.002 0.038,0.003 0.055,0.004 0.021,0.002 0.039,0.005 0.059,0.006 0.021,0.002 0.038,0.003 0.056,0.005 H 1.42 c 0.018,0 0.038,0.001 0.056,0.003 0.021,10e-4 0.038,0.003 0.059,0.003 0.018,10e-4 0.038,0.003 0.056,0.004 0.02,0 0.041,0 0.058,10e-4 0.021,0 0.038,0.002 0.059,0.002 0.018,0 0.039,10e-4 0.056,10e-4 h 0.003 c 0.018,0 0.038,0 0.056,0.002 0.021,0 0.041,-0.002 0.059,0 0.02,0 0.038,0 0.058,-0.002 H 2 c 0.017,0 0.038,-10e-4 0.058,-10e-4 0.018,0 0.038,-0.002 0.056,-0.002 h 0.003 c 0.018,-10e-4 0.038,-10e-4 0.056,-0.002 0.02,-0.002 0.041,-0.002 0.058,-0.003 0.021,-0.002 0.042,-0.002 0.06,-0.003 0.02,-0.002 0.041,-0.003 0.058,-0.005 0.021,-10e-4 0.042,-0.003 0.059,-0.004 0.021,-0.002 0.041,-0.003 0.059,-0.005 H 2.47 C 2.487,-3.669 2.508,-3.671 2.529,-3.672 2.546,-3.674 2.567,-3.677 2.587,-3.678 2.605,-3.681 2.625,-3.683 2.646,-3.686 2.664,-3.688 2.685,-3.69 2.702,-3.693 H 2.705 C 2.723,-3.696 2.743,-3.697 2.764,-3.7 2.782,-3.703 2.802,-3.706 2.823,-3.709 2.84,-3.712 2.861,-3.715 2.881,-3.718 2.902,-3.721 2.92,-3.724 2.94,-3.729 2.961,-3.731 2.979,-3.734 2.999,-3.737 3.02,-3.74 3.037,-3.745 3.058,-3.749 3.079,-3.752 3.099,-3.756 3.117,-3.761 H 3.12 c 0.017,-0.003 0.038,-0.007 0.055,-0.011 0.021,-0.003 0.042,-0.008 0.062,-0.012 0.018,-0.005 0.038,-0.009 0.059,-0.013 0.017,-0.005 0.038,-0.009 0.059,-0.014 0.02,-0.005 0.038,-0.01 0.059,-0.014 0.02,-0.005 0.041,-0.01 0.058,-0.015 L 3.555,-3.862 3.552,-3.943 c 0,-0.004 -0.003,-0.009 -0.003,-0.013 v -0.013 -0.013 c -0.003,-0.005 0,-0.01 -0.003,-0.014 v -0.015 c 0,-0.004 0,-0.009 -0.003,-0.013 v -0.015 c -0.003,-0.004 0,-0.008 -0.003,-0.013 0,-0.006 0,-0.01 -0.003,-0.016 V -4.083 H 3.534 V -4.097 H 3.531 V -4.11 C 3.528,-4.116 3.528,-4.121 3.528,-4.126 H 3.525 c 0,-0.005 0,-0.011 -0.003,-0.016 0,-0.004 0,-0.01 -0.002,-0.014 0,-0.006 0,-0.011 -0.003,-0.016 0,-0.005 -0.003,-0.011 -0.003,-0.016 C 3.511,-4.193 3.511,-4.199 3.508,-4.205 3.508,-4.209 3.505,-4.215 3.505,-4.219 3.502,-4.225 3.502,-4.231 3.499,-4.235 3.499,-4.241 3.496,-4.247 3.496,-4.251 3.493,-4.257 3.493,-4.263 3.49,-4.268 3.49,-4.274 3.487,-4.28 3.484,-4.286 3.484,-4.29 3.481,-4.296 3.481,-4.3 3.479,-4.306 3.479,-4.312 3.476,-4.318 3.472,-4.324 3.472,-4.33 3.47,-4.334 3.466,-4.34 3.466,-4.346 3.464,-4.352 3.46,-4.357 3.46,-4.362 3.458,-4.368 3.458,-4.374 3.455,-4.379 3.452,-4.385 3.449,-4.391 3.449,-4.397 3.446,-4.401 3.443,-4.407 3.443,-4.414 3.44,-4.419 3.437,-4.425 3.437,-4.431 3.434,-4.437 L 3.425,-4.455 C 3.425,-4.46 3.422,-4.466 3.419,-4.472 3.417,-4.478 3.417,-4.484 3.414,-4.49 3.411,-4.494 3.408,-4.501 3.408,-4.507 L 3.399,-4.525 C 3.396,-4.531 3.393,-4.537 3.39,-4.543 3.39,-4.549 3.387,-4.555 3.384,-4.561 3.381,-4.566 3.378,-4.572 3.378,-4.578 H 3.375 C 3.373,-4.584 3.373,-4.59 3.37,-4.596 3.367,-4.602 3.364,-4.609 3.361,-4.615 3.358,-4.619 3.355,-4.626 3.352,-4.632 3.349,-4.638 3.349,-4.644 3.346,-4.65 L 3.337,-4.667 C 3.334,-4.673 3.332,-4.68 3.328,-4.686 3.326,-4.691 3.322,-4.699 3.319,-4.705 3.316,-4.71 3.313,-4.715 3.311,-4.722 L 3.302,-4.74 C 3.299,-4.746 3.296,-4.753 3.293,-4.759 L 3.284,-4.776 3.275,-4.794 C 3.272,-4.802 3.267,-4.808 3.264,-4.813 L 3.255,-4.831 C 3.252,-4.838 3.249,-4.844 3.246,-4.85 L 3.237,-4.868 C 3.234,-4.874 3.229,-4.879 3.226,-4.885 3.223,-4.891 3.22,-4.898 3.217,-4.903 3.214,-4.91 3.211,-4.916 3.208,-4.922 3.202,-4.928 3.199,-4.934 3.196,-4.94 3.193,-4.946 3.19,-4.953 3.187,-4.959 3.184,-4.965 3.178,-4.971 3.175,-4.977 L 3.167,-4.994 C 3.164,-5 3.161,-5.006 3.155,-5.012 L 3.146,-5.029 C 3.14,-5.035 3.137,-5.041 3.134,-5.047 L 3.125,-5.064 C 3.12,-5.07 3.117,-5.077 3.114,-5.083 3.111,-5.088 3.105,-5.093 3.102,-5.099 L 3.093,-5.116 C 3.09,-5.122 3.084,-5.128 3.082,-5.134 3.079,-5.14 3.076,-5.144 3.073,-5.15 H 3.07 L 3.061,-5.167 C 3.055,-5.173 3.052,-5.178 3.049,-5.184 3.046,-5.189 3.04,-5.195 3.037,-5.201 3.034,-5.207 3.031,-5.213 3.028,-5.217 H 3.025 C 3.022,-5.223 3.02,-5.229 3.017,-5.235 3.011,-5.241 3.008,-5.246 3.005,-5.251 2.999,-5.257 2.996,-5.263 2.993,-5.268 2.99,-5.273 2.984,-5.279 2.981,-5.284 2.979,-5.29 2.973,-5.295 2.97,-5.301 2.967,-5.307 2.964,-5.312 2.958,-5.317 2.955,-5.323 2.952,-5.329 2.946,-5.333 2.943,-5.339 2.94,-5.344 2.935,-5.35 2.932,-5.355 2.929,-5.361 2.922,-5.366 2.92,-5.372 2.914,-5.376 2.911,-5.382 2.908,-5.388 2.905,-5.393 2.899,-5.398 2.896,-5.404 2.893,-5.409 2.887,-5.413 2.884,-5.419 2.881,-5.425 2.875,-5.429 2.873,-5.435 2.867,-5.439 2.864,-5.445 2.861,-5.451 2.855,-5.456 2.852,-5.461 2.849,-5.466 2.843,-5.47 2.84,-5.476 2.837,-5.48 2.832,-5.486 2.829,-5.493 2.823,-5.497 2.82,-5.501 2.817,-5.507 2.811,-5.512 2.808,-5.518 2.805,-5.522 2.799,-5.526 2.796,-5.532 2.793,-5.537 H 2.79 C 2.788,-5.541 2.784,-5.547 2.778,-5.551 2.776,-5.556 2.772,-5.562 2.767,-5.566 2.764,-5.57 2.758,-5.576 2.755,-5.581 2.749,-5.585 2.746,-5.589 2.743,-5.595 2.737,-5.6 2.734,-5.604 2.729,-5.608 2.726,-5.614 2.723,-5.619 2.717,-5.624 2.714,-5.628 2.708,-5.632 2.705,-5.638 c 0,0 0,0.001 0,0 C 2.702,-5.643 2.696,-5.647 2.693,-5.651 2.69,-5.656 2.685,-5.66 2.682,-5.665 H 2.679 C 2.676,-5.669 2.673,-5.673 2.667,-5.678 2.664,-5.682 2.661,-5.687 2.655,-5.691 2.652,-5.695 2.646,-5.7 2.644,-5.704 2.638,-5.708 2.634,-5.713 2.628,-5.717 2.625,-5.722 2.623,-5.725 2.617,-5.729 2.614,-5.733 2.608,-5.738 2.605,-5.742 2.599,-5.747 2.596,-5.75 2.593,-5.754 2.59,-5.758 2.584,-5.763 2.582,-5.768 2.576,-5.771 2.573,-5.775 2.567,-5.779 2.564,-5.784 2.558,-5.788 2.555,-5.791 c 0,0 0,0.001 0,0 C 2.552,-5.794 2.546,-5.798 2.543,-5.803 2.538,-5.806 2.535,-5.81 2.531,-5.814 H 2.529 C 2.525,-5.817 2.523,-5.822 2.517,-5.825 2.514,-5.829 2.508,-5.832 2.505,-5.835 2.5,-5.839 2.496,-5.844 2.493,-5.847 2.487,-5.85 2.484,-5.854 2.479,-5.857 2.476,-5.86 2.47,-5.864 2.467,-5.867 2.464,-5.87 2.458,-5.875 2.455,-5.877 2.449,-5.881 2.446,-5.883 2.443,-5.888 2.438,-5.891 2.435,-5.894 2.432,-5.896 H 2.429 C 2.426,-5.901 2.423,-5.904 2.417,-5.907 2.414,-5.91 2.408,-5.913 2.405,-5.916 2.402,-5.919 2.396,-5.92 2.393,-5.925 L 2.355,-5.941 C 2.34,-5.944 2.326,-5.948 2.311,-5.953 2.296,-5.956 2.282,-5.958 2.264,-5.963 2.249,-5.966 2.235,-5.969 2.22,-5.972 2.205,-5.976 2.19,-5.979 2.173,-5.982 L 2.129,-5.991 H 2.126 C 2.111,-5.995 2.096,-5.998 2.082,-6.001 2.067,-6.004 2.052,-6.007 2.035,-6.01 2.02,-6.013 2.005,-6.016 1.991,-6.019 1.973,-6.021 1.958,-6.026 1.943,-6.027 1.929,-6.032 1.911,-6.033 1.896,-6.037 1.882,-6.039 1.867,-6.042 1.85,-6.045 1.835,-6.048 1.82,-6.051 1.805,-6.053 1.788,-6.056 1.773,-6.059 1.758,-6.062 H 1.755 C 1.741,-6.064 1.726,-6.067 1.711,-6.069 1.697,-6.072 1.679,-6.073 1.664,-6.076 1.649,-6.079 1.632,-6.081 1.617,-6.083 1.603,-6.085 1.585,-6.088 1.57,-6.091 1.553,-6.094 1.538,-6.095 1.523,-6.098 1.505,-6.1 1.491,-6.103 1.476,-6.104 1.458,-6.105 1.444,-6.108 1.429,-6.11 1.411,-6.113 1.396,-6.114 1.382,-6.117 1.364,-6.119 1.35,-6.122 1.335,-6.123 H 1.332 C 1.317,-6.125 1.302,-6.126 1.285,-6.129 1.27,-6.13 1.255,-6.132 1.238,-6.133 1.223,-6.136 1.206,-6.138 1.191,-6.139 1.176,-6.141 1.158,-6.144 1.144,-6.145 1.129,-6.146 1.111,-6.148 1.097,-6.149 1.079,-6.151 1.064,-6.154 1.05,-6.155 1.032,-6.157 1.018,-6.158 1.002,-6.16 H 1 C 0.985,-6.162 0.97,-6.163 0.953,-6.164 0.938,-6.166 0.92,-6.167 0.906,-6.169 0.891,-6.17 0.873,-6.171 0.858,-6.173 0.841,-6.175 0.826,-6.176 0.809,-6.176 0.794,-6.177 0.779,-6.181 0.762,-6.181 0.747,-6.182 0.729,-6.184 0.714,-6.185 0.697,-6.187 0.682,-6.187 0.667,-6.188 0.65,-6.189 0.635,-6.191 0.618,-6.192 0.603,-6.192 0.585,-6.194 0.57,-6.195 0.556,-6.197 0.538,-6.197 0.523,-6.198 0.506,-6.2 0.491,-6.2 0.476,-6.2 H 0.474 C 0.458,-6.201 0.441,-6.203 0.426,-6.204 0.412,-6.204 0.394,-6.206 0.379,-6.206 0.362,-6.207 0.347,-6.207 0.332,-6.208 H 0.33 C 0.314,-6.21 0.3,-6.21 0.282,-6.211 V -6.21 C 0.268,-6.211 0.25,-6.213 0.235,-6.213 0.221,-6.213 0.203,-6.214 0.188,-6.214 0.17,-6.216 0.156,-6.216 0.141,-6.216 H 0.138 C 0.124,-6.217 0.109,-6.217 0.091,-6.217 0.077,-6.219 0.059,-6.219 0.044,-6.219 L 0,-6.222 v -22.674 c 3.734,-0.113 7.515,-0.146 9.823,0.936 2.32,1.086 3.135,3.429 0.788,8.275 -0.196,0.404 0.515,0.809 0.794,0.451 4.408,-5.623 2.553,-9.026 -0.029,-10.983 -1.229,-0.932 -2.617,-1.519 -3.546,-1.86 1.003,-0.609 1.564,-1.47 1.782,-2.467 0.217,-0.999 0.073,-2.131 -0.327,-3.26 -0.202,-0.565 -0.47,-1.135 -0.79,-1.688 C 8.468,-39.54 8.3,-39.677 8.248,-39.695 6.081,-40.459 3.193,-41.6 0,-43.05 Z m 0,-20.316 c 1.244,-0.259 2.517,-0.457 3.819,-0.586 -1.346,0.791 -2.675,1.887 -3.819,3.222 z" /></g><g
           transform="translate(156.3032,311.6457)"
           id="g80"><path
             id="path82"
             style="fill:#2f2d2d;fill-opacity:1;fill-rule:evenodd;stroke:none"
             d="m 0,0 c -1.714,-0.222 -3.349,-0.737 -4.89,-1.22 -4.072,-1.284 -7.509,-2.364 -10.164,2.575 -0.035,0.061 0.05,0.133 0.112,0.093 C -11.026,-1.16 -6.789,0.167 -2.999,1.355 0.262,2.377 3.196,3.297 5.349,1.552 5.378,1.527 5.381,1.476 5.357,1.448 5.263,1.344 4.552,1.19 3.658,1 2.376,0.725 0.709,0.366 0.027,0.009 0.027,0.007 0.003,0 0,0" /></g><g
           transform="translate(126.207,299.3127)"
           id="g84"><path
             id="path86"
             style="fill:#2f2d2d;fill-opacity:1;fill-rule:evenodd;stroke:none"
             d="m 0,0 c -0.447,-0.037 -0.9,-0.059 -1.355,-0.071 0.099,0.156 0.205,0.309 0.308,0.462 0.38,0.551 0.776,1.081 1.203,1.577 z m -21.77,-5.457 c 2.167,-1.765 1.094,-0.894 -0.003,-0.003 z m -5.375,-3.397 c 0.453,-0.172 0.909,-0.355 1.365,-0.546 -0.051,-0.036 -0.103,-0.071 -0.153,-0.103 -0.374,-0.247 -0.744,-0.488 -1.115,-0.721 z m -0.576,8.003 c 0.506,-0.327 1.003,-0.678 1.503,-1.048 -0.465,-0.201 -0.927,-0.397 -1.386,-0.577 z m 7.465,0.082 c -0.3,0.246 5.652,-4.606 0.121,-0.104 -0.041,0.037 -0.079,0.07 -0.121,0.104 m 13.808,-79.853 6.045,75.617 c -1.652,-0.058 -3.308,0.012 -4.907,0.086 -0.03,0 -0.059,0.003 -0.086,0.003 -1.752,0.079 -3.063,2.211 -2.302,3.759 0.774,1.579 1.65,3.198 2.664,4.682 1.073,1.566 2.311,3.017 3.766,4.182 0.642,0.512 1.303,0.856 1.968,1.053 l 0.109,1.357 -29.327,0.138 0.403,-5.593 c 2.838,-1.3 5.307,-3.33 7.636,-5.247 l -0.006,-0.005 c 0.076,-0.063 0.153,-0.125 0.227,-0.183 l 0.002,0.004 -0.002,-0.004 c 0.041,-0.034 0.082,-0.066 0.123,-0.1 1.27,-1.176 1.138,-3.281 -0.303,-3.961 -0.135,-0.062 -0.273,-0.129 -0.412,-0.194 -0.302,-0.141 -0.611,-0.285 -0.92,-0.429 -0.341,0.276 -0.764,0.62 -1.279,1.041 l -0.003,-0.006 c 0.121,-0.1 0.703,-0.571 1.279,-1.038 -0.22,-0.103 -0.444,-0.206 -0.664,-0.309 0.035,-0.014 0.07,-0.032 0.108,-0.046 0.48,-0.221 0.871,-0.404 1.188,-0.557 0.509,-0.24 0.873,-0.417 1.123,-0.541 l 0.012,-0.006 c 1.688,-0.829 2.091,-3.21 0.7,-4.216 -0.738,-0.532 -1.497,-1.073 -2.249,-1.596 1.517,-0.594 2.293,-2.623 1.37,-3.864 -0.759,-1.014 -2.391,-3.034 -4.175,-4.575 -0.362,-0.311 -0.735,-0.608 -1.118,-0.882 -0.229,-0.162 -0.458,-0.317 -0.688,-0.459 l 0.018,-0.241 v -0.003 l 0.003,-0.058 0.088,-1.239 c 0.944,-16.839 2.876,-39.367 4.311,-57.787 0.788,0.065 1.69,-0.004 2.713,-0.235 3.594,-0.826 9.539,1.885 12.585,1.452" /></g><g
           transform="translate(128.5942,399.9607)"
           id="g88"><path
             id="path90"
             style="fill:#2f2d2d;fill-opacity:1;fill-rule:evenodd;stroke:none"
             d="m 0,0 c -5.019,1.079 -11.167,1.404 -17.109,1.194 -5.943,-0.209 -12.056,-0.966 -16.986,-2.397 -7.31,4.373 -8.242,12.797 -0.715,16.416 5.581,1.145 11.518,2.023 17.139,2.222 5.619,0.196 11.603,-0.261 17.251,-1.009 C 7.339,13.346 6.989,4.876 0,0" /></g><g
           transform="translate(178.0879,400.8195)"
           id="g92"><path
             id="path94"
             style="fill:#2f2d2d;fill-opacity:1;fill-rule:evenodd;stroke:none"
             d="m 0,0 c -5.813,0 -12.011,-0.706 -16.845,-2.201 0.003,-0.195 0.012,-4.181 0.015,-8.064 5.63,0.159 11.244,0.234 16.83,0.234 5.589,0 11.199,-0.075 16.83,-0.234 0.006,3.881 0.012,7.869 0.015,8.064 C 12.014,-0.706 5.816,0 0,0" /></g><g
           transform="translate(111.6025,397.7043)"
           id="g96"><path
             id="path98"
             style="fill:#2f2d2d;fill-opacity:1;fill-rule:evenodd;stroke:none"
             d="m 0,0 c -5.81,-0.205 -11.979,-1.129 -16.756,-2.793 0.02,-0.399 0.214,-5.393 0.39,-10.15 11.109,1.743 22.3,3.065 33.52,4.019 -0.118,3.48 -0.238,7.02 -0.241,7.317 C 12.035,-0.283 5.813,0.204 0,0" /></g><g
           transform="translate(227.584,399.9607)"
           id="g100"><path
             id="path102"
             style="fill:#2f2d2d;fill-opacity:1;fill-rule:evenodd;stroke:none"
             d="M 0,0 C 5.016,1.079 11.167,1.404 17.109,1.194 23.052,0.985 29.165,0.228 34.093,-1.203 41.402,3.17 42.337,11.594 34.81,15.213 29.227,16.358 23.29,17.236 17.671,17.435 12.049,17.631 6.069,17.174 0.417,16.426 -7.339,13.346 -6.989,4.876 0,0" /></g><g
           transform="translate(244.5732,397.7043)"
           id="g104"><path
             id="path106"
             style="fill:#2f2d2d;fill-opacity:1;fill-rule:evenodd;stroke:none"
             d="m 0,0 c 5.81,-0.205 11.981,-1.129 16.759,-2.793 -0.02,-0.389 -0.206,-5.139 -0.379,-9.783 -11.109,1.745 -22.299,3.067 -33.522,4.019 0.115,3.36 0.226,6.663 0.232,6.95 C -12.032,-0.283 -5.81,0.204 0,0" /></g><g
           transform="translate(178.0908,111.924)"
           id="g108"><path
             id="path110"
             style="fill:#2f2d2d;fill-opacity:1;fill-rule:evenodd;stroke:none"
             d="M 0,0 -0.003,0.003 -0.006,0 -0.179,0.273 c -5.396,8.439 -5.996,16.448 -6.563,24.039 -0.018,0.218 -0.032,1.629 -0.047,3.494 4.542,0.041 9.068,0.023 13.572,-0.044 C 6.766,25.921 6.751,24.527 6.736,24.312 6.168,16.721 5.569,8.712 0.173,0.273 Z" /></g><g
           transform="translate(121.0205,108.6398)"
           id="g112"><path
             id="path114"
             style="fill:#2f2d2d;fill-opacity:1;fill-rule:evenodd;stroke:none"
             d="M 0,0 V 0.003 L -0.003,0 -0.186,0.271 c -5.686,8.241 -6.562,16.223 -7.391,23.791 -0.024,0.209 -0.083,1.544 -0.159,3.327 4.51,0.547 9.024,1.025 13.534,1.446 C 5.857,26.586 5.904,24.783 5.892,24.536 5.589,16.93 5.266,8.902 0.165,0.282 Z" /></g><g
           transform="translate(235.1553,108.6398)"
           id="g116"><path
             id="path118"
             style="fill:#2f2d2d;fill-opacity:1;fill-rule:evenodd;stroke:none"
             d="M 0,0 -0.003,0.003 V 0 l -0.164,0.282 c -5.102,8.62 -5.425,16.648 -5.731,24.254 -0.009,0.238 0.035,1.92 0.091,4.052 C -1.252,28.155 3.258,27.667 7.721,27.133 7.651,25.479 7.595,24.26 7.574,24.062 6.745,16.494 5.869,8.512 0.183,0.271 Z" /></g></g></g></g></svg>